<?xml version="1.0" encoding="UTF-8"?>
<svg width="24px" height="24px" viewBox="0 0 24 24" version="1.1" xmlns="http://www.w3.org/2000/svg" xmlns:xlink="http://www.w3.org/1999/xlink">
    <!-- Generator: Sketch 62 (91390) - https://sketch.com -->
    <title>Appliances</title>
    <desc>Created with Sketch.</desc>
    <g id="Appliances" stroke="none" stroke-width="1" fill="none" fill-rule="evenodd">
        <path d="M21.6,9 L21.6,22.36 C21.6,22.6813293 21.3631919,22.9473491 21.0545745,22.9930608 L20.96,23 L2.64,23 C2.31867069,23 2.05265087,22.7631919 2.00693924,22.4545745 L2,22.36 L2,9 L21.6,9 Z M18.0363636,12.5 L5.56363636,12.5 L5.56363636,19.5 L18.0363636,19.5 L18.0363636,12.5 Z M20.32,2 C20.9827417,2 21.5278427,2.50367966 21.5933915,3.14912744 L21.6,3.28 L21.6,7.25 L2,7.25 L2,3.28 C2,2.6172583 2.50367966,2.07215729 3.14912744,2.0066085 L3.28,2 L20.32,2 Z M6.47045455,3.75 L6.43863636,3.75 C5.95538721,3.75 5.56363636,4.14175084 5.56363636,4.625 C5.56363636,5.10824916 5.95538721,5.5 6.43863636,5.5 L6.47045455,5.5 C6.9537037,5.5 7.34545455,5.10824916 7.34545455,4.625 C7.34545455,4.14175084 6.9537037,3.75 6.47045455,3.75 Z M11.8159091,3.75 L11.7840909,3.75 C11.3008418,3.75 10.9090909,4.14175084 10.9090909,4.625 C10.9090909,5.10824916 11.3008418,5.5 11.7840909,5.5 L11.8159091,5.5 C12.2991582,5.5 12.6909091,5.10824916 12.6909091,4.625 C12.6909091,4.14175084 12.2991582,3.75 11.8159091,3.75 Z M17.1613636,3.75 L17.1295455,3.75 C16.6462963,3.75 16.2545455,4.14175084 16.2545455,4.625 C16.2545455,5.10824916 16.6462963,5.5 17.1295455,5.5 L17.1613636,5.5 C17.6446128,5.5 18.0363636,5.10824916 18.0363636,4.625 C18.0363636,4.14175084 17.6446128,3.75 17.1613636,3.75 Z" id="Combined-Shape" fill="#1F2F3C"></path>
    </g>
</svg>