<?xml version="1.0" encoding="UTF-8"?>
<svg width="24px" height="24px" viewBox="0 0 24 24" version="1.1" xmlns="http://www.w3.org/2000/svg" xmlns:xlink="http://www.w3.org/1999/xlink">
    <!-- Generator: Sketch 62 (91390) - https://sketch.com -->
    <title>Assembly</title>
    <desc>Created with Sketch.</desc>
    <g id="Assembly" stroke="none" stroke-width="1" fill="none" fill-rule="evenodd">
        <path d="M5.63636364,16.5454545 L5.63636364,22 L2,22 L2,16.5454545 L5.63636364,16.5454545 Z M22,16.5454545 L22,22 L18.3636364,22 L18.3636364,16.5454545 L22,16.5454545 Z M22,9.27272727 L22,14.7272727 L2,14.7272727 L2,9.27272727 L22,9.27272727 Z M13.8181818,11.0909091 L10.1818182,11.0909091 C9.67974114,11.0909091 9.27272727,11.497923 9.27272727,12 C9.27272727,12.4662144 9.6236729,12.8504611 10.075799,12.9029748 L10.1818182,12.9090909 L13.8181818,12.9090909 C14.3202589,12.9090909 14.7272727,12.502077 14.7272727,12 C14.7272727,11.497923 14.3202589,11.0909091 13.8181818,11.0909091 Z M22,2 L22,7.45454545 L2,7.45454545 L2,2 L22,2 Z M13.8181818,3.81818182 L10.1818182,3.81818182 C9.67974114,3.81818182 9.27272727,4.22519568 9.27272727,4.72727273 C9.27272727,5.19348713 9.6236729,5.57773378 10.075799,5.63024752 L10.1818182,5.63636364 L13.8181818,5.63636364 C14.3202589,5.63636364 14.7272727,5.22934977 14.7272727,4.72727273 C14.7272727,4.22519568 14.3202589,3.81818182 13.8181818,3.81818182 Z" id="Combined-Shape" fill="#1F2F3C"></path>
    </g>
</svg>