<?xml version="1.0" encoding="UTF-8"?>
<svg width="24px" height="24px" viewBox="0 0 24 24" version="1.1" xmlns="http://www.w3.org/2000/svg" xmlns:xlink="http://www.w3.org/1999/xlink">
    <!-- Generator: Sketch 62 (91390) - https://sketch.com -->
    <title>Exterior</title>
    <desc>Created with Sketch.</desc>
    <g id="Exterior" stroke="none" stroke-width="1" fill="none" fill-rule="evenodd">
        <path d="M22,3 L22,4.75 L18.363,4.75 L18.363,8.249 L22,8.25 L22,10 L16.545,10 L16.5454545,13.5 L22,13.5 L22,15.25 L18.363,15.25 L18.363,18.75 L22,18.75 L22,20.5 L2,20.5 L2,18.75 L5.636,18.75 L5.636,15.25 L2,15.25 L2,13.5 L7.45454545,13.5 L7.454,10 L2,10 L2,8.25 L5.636,8.249 L5.636,4.75 L2,4.75 L2,3 L22,3 Z M11.09,15.25 L7.454,15.25 L7.454,18.75 L11.09,18.75 L11.09,15.25 Z M16.545,15.25 L12.909,15.25 L12.909,18.75 L16.545,18.75 L16.545,15.25 Z M14.727,10 L9.272,10 L9.272,13.5 L14.727,13.5 L14.727,10 Z M11.09,4.75 L7.454,4.75 L7.454,8.249 L11.09,8.249 L11.09,4.75 Z M16.545,4.75 L12.909,4.75 L12.909,8.249 L16.545,8.249 L16.545,4.75 Z" id="Combined-Shape" fill="#1F2F3C"></path>
    </g>
</svg>