<?xml version="1.0" encoding="UTF-8"?>
<svg width="24px" height="24px" viewBox="0 0 24 24" version="1.1" xmlns="http://www.w3.org/2000/svg" xmlns:xlink="http://www.w3.org/1999/xlink">
    <!-- Generator: Sketch 62 (91390) - https://sketch.com -->
    <title>Fencing</title>
    <desc>Created with Sketch.</desc>
    <g id="Fencing" stroke="none" stroke-width="1" fill="none" fill-rule="evenodd">
        <path d="M13.8608191,15.0094229 L18.8882734,15.0094229 L18.8882734,10.799206 L13.8608191,10.799206 L13.8608191,15.0094229 Z M5.9166824,15.0094229 L10.9441367,15.0094229 L10.9441367,10.799206 L5.9166824,10.799206 L5.9166824,15.0094229 Z M20.5057579,2.08313961 C20.4287348,1.97213577 20.2644944,1.97213577 20.1874713,2.08313961 L18.8877071,4.39383168 L18.8877071,7.88252364 L13.8608191,7.88252364 L13.8608191,4.39383168 L12.5616212,2.08313961 C12.4845981,1.97213577 12.3203577,1.97213577 12.2433346,2.08313961 L10.9441367,4.39383168 L10.9441367,7.88252364 L5.9166824,7.88252364 L5.9166824,4.39383168 L4.61748445,2.08313961 C4.53989504,1.97213577 4.37622102,1.97213577 4.29919795,2.08313961 L3,4.39383168 L3,22.5163404 C3,22.7836558 3.21691056,23 3.48365957,23 L5.43302283,23 C5.69977184,23 5.9166824,22.7836558 5.9166824,22.5163404 L5.9166824,17.925539 L10.9441367,17.925539 L10.9441367,22.5163404 C10.9441367,22.7836558 11.1604809,23 11.4277963,23 L13.3771595,23 C13.6444749,23 13.8608191,22.7836558 13.8608191,22.5163404 L13.8608191,17.925539 L18.8877071,17.925539 L18.8877071,22.5163404 C18.8877071,22.7836558 19.1046176,23 19.371933,23 L21.3212962,23 C21.5880452,23 21.8049558,22.7836558 21.8049558,22.5163404 L21.8049558,4.39383168 L20.5057579,2.08313961 Z" id="Icon/Exterior/Navy" fill="#1F2F3C"></path>
    </g>
</svg>