<?xml version="1.0" encoding="UTF-8"?>
<svg width="24px" height="24px" viewBox="0 0 24 24" version="1.1" xmlns="http://www.w3.org/2000/svg" xmlns:xlink="http://www.w3.org/1999/xlink">
    <!-- Generator: Sketch 62 (91390) - https://sketch.com -->
    <title>Flooring</title>
    <desc>Created with Sketch.</desc>
    <g id="Flooring" stroke="none" stroke-width="1" fill="none" fill-rule="evenodd">
        <path d="M12.0347695,14.0328816 C12.4311625,14.0261344 12.8477062,14.0794195 13.2166951,14.1498033 L13.2166951,14.1498033 L16.532,17.467 L12,22 L7.467,17.467 L10.7701601,14.1640463 C11.0582279,14.1127611 11.3772776,14.0688921 11.7049926,14.0469615 Z M6.532,7.467 L9.85023646,10.7833447 C9.92062029,11.1523335 9.97390532,11.5688773 9.96715817,11.9652702 C9.95956965,12.4066199 9.90437375,12.8457893 9.83599348,13.2298796 L9.83599348,13.2298796 L6.532,16.532 L2,12 L6.532,7.467 Z M17.466,7.467 L22,12 L17.467,16.532 L14.0355424,13.1018865 C14.0013485,12.8645385 13.9767701,12.6098653 13.9711327,12.3501506 L13.9721543,12.0892104 C13.9846498,11.6819661 14.0593044,11.2115459 14.1465143,10.7866642 L14.1465143,10.7866642 L17.466,7.467 Z M12,2 L16.532,6.533 L13.2133756,9.8535255 C12.8947143,9.9189329 12.5504376,9.97727795 12.2264094,10.0076341 L11.9108294,10.0278855 C11.5618817,10.0385869 11.2146173,10.0100892 10.8981294,9.96447352 L10.8981294,9.96447352 L7.467,6.532 L12,2 Z" id="Combined-Shape" fill="#1F2F3C"></path>
    </g>
</svg>