<?xml version="1.0" encoding="UTF-8"?>
<svg width="24px" height="24px" viewBox="0 0 24 24" version="1.1" xmlns="http://www.w3.org/2000/svg" xmlns:xlink="http://www.w3.org/1999/xlink">
    <!-- Generator: Sketch 62 (91390) - https://sketch.com -->
    <title>GarageDoor</title>
    <desc>Created with Sketch.</desc>
    <g id="GarageDoor" stroke="none" stroke-width="1" fill="none" fill-rule="evenodd">
        <path d="M19.7297297,12.796454 L4.27027027,12.796454 L4.27027027,23.1097678 L1.96593069,23.1161483 C1.4339482,23.1176166 1.00148798,22.6910714 1,22.163429 C1,22.1625406 1,22.1616521 1,22.1607636 L1,7.89772918 C1,7.55548782 1.18457074,7.2393895 1.48385993,7.06906406 L11.9255163,1.12672006 C12.2395776,0.947987881 12.6281662,0.959042541 12.9313824,1.15533517 L22.5632395,7.39069612 C22.8357233,7.56709356 23,7.86801265 23,8.19074617 L23,22.1338822 C23,22.6615265 22.5687413,23.0892668 22.0367568,23.0892668 L19.7297297,23.0892668 L19.7297297,12.796454 Z M19.7297297,11.6169668 L19.7297297,11.0272232 L4.27027027,11.0272232 L4.27027027,11.6169668 L19.7297297,11.6169668 Z M14.5066142,14.270813 C15.091259,14.270813 15.7475687,14.7252598 15.969584,15.2837267 L15.969584,15.2837267 L16.4520965,16.4972261 C16.682295,16.9787627 16.8615454,17.4302003 16.9898478,17.8515391 C17.190271,18.3738964 17.3513514,19.2267108 17.3513514,19.7758768 L17.3513514,19.7758768 L17.3513514,22.2962954 C17.3513514,22.7487589 16.9947491,23.1169668 16.556547,23.1169668 L16.556547,23.1169668 L16.0986073,23.1169668 C15.6604051,23.1169668 15.3038029,22.7487589 15.3038029,22.2962954 L15.3038029,22.2962954 L15.3038029,21.7701766 L8.69619709,21.7701766 L8.69619709,22.2962954 C8.69619709,22.7487589 8.33959487,23.1169668 7.90139275,23.1169668 L7.90139275,23.1169668 L7.44345299,23.1169668 C7.00525087,23.1169668 6.64864865,22.7487589 6.64864865,22.2962954 L6.64864865,22.2962954 L6.64864865,19.7758768 C6.64864865,19.2263689 6.80992769,18.3728022 7.01054954,17.8503765 C7.14375324,17.4298128 7.32311406,16.9781016 7.54863208,16.4952428 L7.54863208,16.4952428 L8.03028349,15.2837267 C8.25229887,14.7252598 8.90860852,14.270813 9.49325335,14.270813 L9.49325335,14.270813 Z M14.2385536,14.9964461 L9.68760331,14.9964461 C9.34118988,14.9964461 8.95002286,15.2528787 8.8184527,15.5663604 L8.8184527,15.5663604 L8.05921724,17.3752497 C7.92764707,17.6886673 8.10351144,17.945164 8.44992493,17.945164 L8.44992493,17.945164 L15.4763633,17.945164 C15.8227767,17.945164 15.9986411,17.6887315 15.8670709,17.3752497 L15.8670709,17.3752497 L15.1077043,15.5663604 C14.9761341,15.2528787 14.5849671,14.9964461 14.2385536,14.9964461 L14.2385536,14.9964461 Z M19.4086486,9.25799246 C19.5859769,9.25799246 19.7297297,9.40057253 19.7297297,9.576454 L19.7297297,9.576454 L19.7297297,9.84773605 L4.27027027,9.84773605 L4.27027027,9.576454 C4.27027027,9.40057253 4.41402317,9.25799246 4.59135135,9.25799246 L4.59135135,9.25799246 Z" id="Combined-Shape" fill="#1F2F3C"></path>
    </g>
</svg>