<?xml version="1.0" encoding="UTF-8"?>
<svg width="24px" height="24px" viewBox="0 0 24 24" version="1.1" xmlns="http://www.w3.org/2000/svg" xmlns:xlink="http://www.w3.org/1999/xlink">
    <!-- Generator: Sketch 62 (91390) - https://sketch.com -->
    <title>General</title>
    <desc>Created with Sketch.</desc>
    <g id="General" stroke="none" stroke-width="1" fill="none" fill-rule="evenodd">
        <path d="M17.4972171,2.02583036 C17.6817078,1.96910151 17.9229648,2.01164815 18.1074555,2.09674142 C18.4622453,2.25274575 18.5473948,2.60730105 18.3487125,2.94767413 C17.9655396,3.58587367 17.5823666,4.2240732 17.1708105,4.84809053 C17.014703,5.10337034 17.014703,5.30192131 17.1708105,5.54301891 C17.6107498,6.22376508 18.2351798,6.57832038 19.0582921,6.57832038 C19.2995491,6.57832038 19.4698482,6.4790449 19.5833809,6.25212951 C19.9097875,5.59974776 20.2645773,4.96154822 20.6051755,4.32334869 C20.7754746,4.01134003 20.9457737,3.91206454 21.2721802,3.95461118 C21.5843952,3.9829756 21.7546943,4.19570878 21.8256523,4.46517081 C21.8966102,4.72045062 21.939185,5.00409486 21.9675682,5.27355688 C22.0811009,6.45068047 21.9108018,7.58525742 21.2296055,8.59219447 C20.761283,9.27294064 20.0517034,9.55658488 19.2711659,9.68422479 C18.7744603,9.75513585 18.2919462,9.78350027 17.7952405,9.8260469 C17.2985348,9.86859354 16.8727871,10.0529623 16.5321889,10.3933354 C15.524586,11.371908 14.5311746,12.3646628 13.5377633,13.3574177 C12.5159687,14.3785369 11.5225574,15.4138384 10.4723797,16.4065932 C9.91890764,16.9313351 9.77699173,17.5411702 9.8337581,18.2360986 C9.98986559,19.9946928 9.23771128,21.412914 7.63406153,22.278029 C7.27927176,22.4623977 6.89609881,22.5900376 6.51292586,22.7318597 C6.25747723,22.8311352 6.01622018,22.7744064 5.80334632,22.6042198 C5.54789769,22.3773044 5.49113133,22.1220246 5.67562201,21.8241982 C6.08717814,21.1576342 6.49873427,20.4910703 6.9102904,19.8386885 C7.02382313,19.6543198 7.00963154,19.4983154 6.92448199,19.3139467 C6.56969222,18.6048361 5.6898136,18.1084587 4.9092761,18.1793697 C4.69640224,18.1935519 4.55448634,18.2928274 4.4551452,18.4913784 C4.12873861,19.1295779 3.77394884,19.7819597 3.43335067,20.4201592 C3.26305158,20.7463501 3.10694408,20.8314433 2.78053749,20.8030789 C2.49670568,20.7747145 2.26964022,20.5903457 2.21287386,20.2783371 C2.11353273,19.8103241 2.07095795,19.3564933 2,18.8884803 C2.01419159,18.1651875 2.1561075,17.4702591 2.43993931,16.8036952 C2.86568704,15.7683937 3.67460771,15.2152874 4.7673602,15.0592831 C5.24987428,14.988372 5.73238837,14.9600076 6.21490245,14.917461 C6.72579972,14.8749143 7.16573903,14.6763634 7.5205288,14.3218081 C8.96807106,12.8894047 10.4014217,11.4428191 11.848964,10.0104157 C12.4308192,9.42894497 12.9842912,8.84747428 13.5803381,8.29436802 C14.0202774,7.89726609 14.204768,7.42925309 14.1905765,6.83360019 C14.1763849,6.29467614 14.1763849,5.74156988 14.2615344,5.21682804 C14.4602167,3.9829756 15.212371,3.11786068 16.2909319,2.52220778 C16.6741048,2.3094746 17.085661,2.15347027 17.4972171,2.02583036 Z M15.3684785,13.1588667 C15.6523103,12.8752225 15.9787169,12.8184936 16.2767403,13.0879556 C16.7166796,13.4708754 17.1140442,13.8821595 17.4972171,14.3076259 C17.6958994,14.5345413 17.6817078,14.8323677 17.5823666,15.1443764 C17.6675162,15.1585586 17.7384741,15.186923 17.8094321,15.2011052 C18.3487125,15.3145629 18.817035,15.5556605 19.200208,15.9527624 C19.9239791,16.6902375 20.6477502,17.4418947 21.3999046,18.1510053 C22.1946336,18.9168447 22.1520589,20.0514217 21.5418205,20.7888967 C21.2154139,21.2001808 20.8322409,21.5689184 20.4348764,21.9092914 C19.6969137,22.5333088 18.5332032,22.5900376 17.7810489,21.7816515 C17.0998526,21.0299943 16.3618898,20.3350659 15.6381187,19.6259553 C15.212371,19.2146712 14.9427308,18.732476 14.829198,18.1651875 C14.8150064,18.1226409 14.8008149,18.065912 14.7866233,18.0233654 C14.7724317,18.0091832 14.7724317,17.995001 14.7440485,17.9666365 C14.3183008,18.0942764 13.963511,17.9808187 13.6654876,17.6546279 C13.3958474,17.3568014 13.097824,17.1015216 12.8281837,16.8036952 C12.714651,16.6760553 12.6295015,16.5058687 12.5727351,16.3498644 C12.5017772,16.1371312 12.5585435,15.9669447 12.7288426,15.7967581 C13.6229128,14.9316432 14.5027915,14.0381638 15.3684785,13.1588667 Z M3.24885999,2.94767413 C3.50430862,2.67821211 3.70299089,2.67821211 3.98682271,2.9051275 C4.62544429,3.41568713 5.24987428,3.94042897 5.88849587,4.45098859 C6.24328564,4.74881504 6.25747723,4.97573043 5.94526223,5.30192131 C5.91687905,5.33028573 5.90268746,5.35865016 5.87430428,5.38701458 L5.87430428,5.38701458 L10.3304638,9.84022912 C10.0324404,10.1380556 9.77699173,10.3933354 9.5215431,10.6486152 C8.05980925,9.18784737 6.56969222,7.69871512 5.12214997,6.25212951 C5.03700042,6.26631172 5.02280883,6.25212951 5.00861724,6.26631172 C4.6112527,6.70596029 4.2990377,6.56413817 4.01520589,6.18121845 C3.54688339,5.55720112 3.05017772,4.97573043 2.55347204,4.36589532 C2.312215,4.05388666 2.32640659,3.86951791 2.59604681,3.60005588 C2.80892067,3.3873227 3.02179453,3.16040731 3.24885999,2.94767413 Z" id="Icon/Handyman/Navy" fill="#1F2F3C"></path>
    </g>
</svg>