<?xml version="1.0" encoding="UTF-8"?>
<svg width="24px" height="24px" viewBox="0 0 24 24" version="1.1" xmlns="http://www.w3.org/2000/svg" xmlns:xlink="http://www.w3.org/1999/xlink">
    <!-- Generator: Sketch 62 (91390) - https://sketch.com -->
    <title>Hauling</title>
    <desc>Created with Sketch.</desc>
    <g id="Hauling" stroke="none" stroke-width="1" fill="none" fill-rule="evenodd">
        <path d="M5.9007852,4 L8.83856315,6.68802813 L8.8392267,13.9552596 C9.76129033,14.2096698 10.4837556,14.9452409 10.719533,15.8748833 L16.1526148,15.8751325 L16.1526148,17.2191325 L10.719533,17.2193817 C10.4256891,18.3779735 9.37591875,19.2351325 8.12594815,19.2351325 C6.64827962,19.2351325 5.4503926,18.0372455 5.4503926,16.559577 L5.4503926,16.5346881 C5.4503926,15.2729865 6.32371603,14.2152605 7.49884284,13.9330302 L7.50078537,7.28184379 L5,4.99365811 L5.9007852,4 Z M8.502,15.257 L8.475,15.249 L8.427,15.237 L8.397,15.23 L8.398,15.23 L8.395,15.229 L8.38903213,15.2289932 L8.366,15.224 L8.385,15.228 L8.395,15.229 L8.397,15.23 L8.385,15.228 L8.354,15.222 L8.327,15.218 L8.334,15.219 L8.354,15.222 L8.366,15.224 L8.33876147,15.2199666 L8.33876147,15.2199666 L8.334,15.219 L8.325,15.217 L8.31131316,15.215871 L8.31131316,15.215871 L8.317,15.216 L8.325,15.217 L8.327,15.218 L8.317,15.216 L8.28,15.212 L8.2194972,15.2063525 C8.18859123,15.2042176 8.15739642,15.2031325 8.12594815,15.2031325 C8.05351342,15.2031325 7.98242328,15.2088894 7.91311029,15.2199705 C7.89748185,15.2224687 7.88191274,15.2252436 7.86643932,15.2282853 L7.85561962,15.2304589 L7.85561962,15.2304589 L7.83,15.236 L7.80638563,15.2415395 L7.80638563,15.2415395 L7.79901214,15.2433692 L7.788,15.246 L7.773,15.25 L7.74737542,15.2574511 L7.74737542,15.2574511 L7.74041902,15.2595204 L7.725,15.264 L7.6829329,15.2782296 L7.6829329,15.2782296 L7.701,15.272 L7.68325715,15.2781159 L7.68325715,15.2781159 L7.629,15.298 L7.58470271,15.3171459 L7.58470271,15.3171459 C7.15283799,15.5084326 6.84116036,15.9216166 6.79429435,16.4120734 L6.78817038,16.5409103 L6.78817038,16.5533547 C6.78817038,17.292189 7.38711389,17.8911325 8.12594815,17.8911325 C8.67735755,17.8911325 9.15084796,17.5575217 9.35559056,17.0811289 L9.37,17.045 L9.364,17.058 L9.375,17.031 L9.38102702,17.0174656 L9.38102702,17.0174656 L9.38770161,16.9990039 L9.408,16.935 L9.41,16.928 L9.419,16.895 L9.421,16.888 L9.422,16.884 L9.43636482,16.8238526 L9.43636482,16.8238526 L9.438,16.811 L9.439,16.807 L9.439,16.806 L9.4488353,16.7536282 C9.45238047,16.7300124 9.45530834,16.7061946 9.45760196,16.6821917 L9.46372593,16.5533547 L9.46372593,16.5409103 C9.46372593,16.4746842 9.45891367,16.4095822 9.44961975,16.3459347 L9.43586165,16.2679736 L9.43586165,16.2679736 L9.423,16.216 L9.409,16.165 L9.414,16.18 L9.41025519,16.1652287 C9.4037252,16.142868 9.39662709,16.1207496 9.38897754,16.0988903 L9.38130309,16.0775464 L9.38130309,16.0775464 L9.362,16.03 L9.35791734,16.0185835 L9.35791734,16.0185835 L9.347,15.995 L9.33345944,15.9643713 L9.33345944,15.9643713 L9.332,15.962 L9.25603149,15.8246581 C9.17060926,15.6901627 9.06183797,15.5719542 8.93542161,15.4757368 L8.83886664,15.4087165 L8.71511559,15.3395214 C8.70919021,15.3366101 8.70324016,15.3337413 8.69726582,15.3309154 L8.614,15.295 L8.6,15.29 L8.607,15.292 L8.614,15.295 L8.642,15.306 L8.62617109,15.2997917 L8.62617109,15.2997917 L8.607,15.292 L8.594,15.287 L8.58657604,15.2845485 L8.589,15.285 L8.594,15.287 L8.6,15.29 L8.589,15.285 L8.568,15.278 L8.543,15.269 L8.531,15.266 L8.533,15.266 L8.528,15.265 L8.52649103,15.2641283 L8.509,15.259 L8.502,15.257 Z M13.4770593,5.79513251 L13.4770593,8.48313251 L16.1526148,8.48313251 L16.1526148,5.79513251 L18.8281704,5.79513251 L18.8281704,13.8591325 L10.8015037,13.8591325 L10.8015037,5.79513251 L13.4770593,5.79513251 Z" id="Combined-Shape" fill="#1F2F3C" transform="translate(11.914085, 11.617566) rotate(-20.000000) translate(-11.914085, -11.617566) "></path>
    </g>
</svg>