<?xml version="1.0" encoding="UTF-8"?>
<svg width="24px" height="24px" viewBox="0 0 24 24" version="1.1" xmlns="http://www.w3.org/2000/svg" xmlns:xlink="http://www.w3.org/1999/xlink">
    <!-- Generator: Sketch 62 (91390) - https://sketch.com -->
    <title>Hvac</title>
    <desc>Created with Sketch.</desc>
    <g id="Hvac" stroke="none" stroke-width="1" fill="none" fill-rule="evenodd">
        <path d="M2.4100785,17.7827323 C4.48044152,16.0116728 7.04769166,13.8102623 12.5465758,16.9054785 C16.7038648,19.2558566 18.2442149,17.9482519 20.1820746,16.2765041 C20.645836,15.8627051 21.3414779,15.928913 21.7389876,16.4089198 C22.1364973,16.8723746 22.0702457,17.6006607 21.6064844,17.9979077 C20.298015,19.1234409 18.7742278,20.4310456 16.4222954,20.4310456 C15.0807002,20.4310456 13.4740985,20.0006947 11.4699871,18.8751615 C7.31269813,16.5247835 5.77234804,17.8323882 3.83448826,19.5041359 C3.37072694,19.9179349 2.67508496,19.851727 2.27757527,19.3717203 C1.88006557,18.8917135 1.94631718,18.1799793 2.4100785,17.7827323 Z M2.4100785,12.1219626 C4.48044152,10.3509031 7.04769166,8.14949263 12.5465758,11.2447088 C16.7038648,13.5950869 18.2442149,12.2874822 20.1820746,10.6157344 C20.645836,10.2019354 21.3414779,10.2681433 21.7389876,10.7481501 C22.1364973,11.2116049 22.0702457,11.939891 21.6064844,12.337138 C20.298015,13.4626712 18.7742278,14.7702759 16.4222954,14.7702759 C15.0807002,14.7702759 13.4740985,14.339925 11.4699871,13.2143918 C7.31269813,10.8640138 5.77234804,12.1716185 3.83448826,13.8433662 C3.37072694,14.2406132 2.67508496,14.1744054 2.27757527,13.7109506 C1.88006557,13.2309438 1.94631718,12.5192096 2.4100785,12.1219626 Z M2.39351559,6.42808898 C4.46387861,4.65702946 7.03112876,2.45561902 12.5300129,5.5508352 C16.6873019,7.90121326 18.227652,6.59360856 20.1655117,4.92186079 C20.6292731,4.52461379 21.3414779,4.59082163 21.7224247,5.05427645 C22.1199344,5.53428324 22.0536828,6.24601744 21.5899215,6.64326444 C20.2814521,7.76879759 18.7576649,9.07640229 16.4057325,9.07640229 C15.0641373,9.07640229 13.4575356,8.64605137 11.4534242,7.52051822 C7.29613522,5.17014016 5.75578514,6.47774486 3.81792535,8.14949263 C3.35416403,8.56329158 2.65852206,8.49708375 2.26101236,8.01707696 C1.86350266,7.53707018 1.92975428,6.82533598 2.39351559,6.42808898 Z" id="Icon/HVAC/Red" fill="#1F2F3C"></path>
    </g>
</svg>