<?xml version="1.0" encoding="UTF-8"?>
<svg width="24px" height="24px" viewBox="0 0 24 24" version="1.1" xmlns="http://www.w3.org/2000/svg" xmlns:xlink="http://www.w3.org/1999/xlink">
    <!-- Generator: Sketch 62 (91390) - https://sketch.com -->
    <title>Inspection</title>
    <desc>Created with Sketch.</desc>
    <g id="Inspection" stroke="none" stroke-width="1" fill="none" fill-rule="evenodd">
        <path d="M11.2307692,3 C13.6047845,3 15.7692845,3.88768793 17.4046806,5.34639842 L15.8937941,6.73666635 C14.6393679,5.6741053 13.0108112,5.03252033 11.2307692,5.03252033 C7.26570168,5.03252033 4.05128205,8.21728095 4.05128205,12.1463415 C4.05128205,16.0747943 7.26605374,19.2601626 11.2307692,19.2601626 C15.196098,19.2601626 18.4102564,16.0751432 18.4102564,12.1463415 C18.4102564,11.7898167 18.3837992,11.4394251 18.3327236,11.0969887 L20.0746109,9.51725307 C20.3263156,10.3499016 20.4615385,11.2324542 20.4615385,12.1463415 C20.4615385,17.1976362 16.3290271,21.2926829 11.2307692,21.2926829 C6.13316195,21.2926829 2,17.1973243 2,12.1463415 C2,7.094714 6.1328472,3 11.2307692,3 Z M20.3276805,4.3917566 L22,6.04878049 L13.002,14.208 L11.3546653,15.703252 L6.73447849,11.3763155 L8.40679798,9.71929164 L11.3546653,12.6401967 L18.2955941,6.25892506 L18.2955941,6.25892506 L19.206,5.422 L20.3276805,4.3917566 Z" id="Combined-Shape" fill="#1F2F3C"></path>
    </g>
</svg>