<?xml version="1.0" encoding="UTF-8"?>
<svg width="24px" height="24px" viewBox="0 0 24 24" version="1.1" xmlns="http://www.w3.org/2000/svg" xmlns:xlink="http://www.w3.org/1999/xlink">
    <!-- Generator: Sketch 62 (91390) - https://sketch.com -->
    <title>Installation</title>
    <desc>Created with Sketch.</desc>
    <g id="Installation" stroke="none" stroke-width="1" fill="none" fill-rule="evenodd">
        <path d="M10.583,12.9565217 L10.5833333,17.1217391 C10.5833333,17.342653 10.7624194,17.5217391 10.9833333,17.5217391 L13.85,17.5217391 C14.0709139,17.5217391 14.25,17.342653 14.25,17.1217391 L14.25,12.9565217 L18.4333333,12.9565217 C18.626633,12.9565217 18.7879082,13.0936345 18.8252068,13.2759078 L18.8333333,13.3565217 L18.8333333,22.6 C18.8333333,22.7932997 18.6962205,22.9545749 18.5139473,22.9918734 L18.4333333,23 L6.4,23 C6.20670034,23 6.04542508,22.8628872 6.00812658,22.680614 L6,22.6 L6,13.3565217 C6,13.1632221 6.1371128,13.0019468 6.31938605,12.9646483 L6.4,12.9565217 L10.583,12.9565217 Z M12.4166667,2 L17,6.32895277 L15.761454,7.70652174 L13.5623333,5.744 L13.5625,11.1304348 L11.2708333,11.1304348 L11.2703333,5.744 L9.07187932,7.70652174 L7.83333333,6.32895277 L12.4166667,2 Z" id="Combined-Shape" fill="#1F2F3C"></path>
    </g>
</svg>