<?xml version="1.0" encoding="UTF-8"?>
<svg width="24px" height="24px" viewBox="0 0 24 24" version="1.1" xmlns="http://www.w3.org/2000/svg" xmlns:xlink="http://www.w3.org/1999/xlink">
    <!-- Generator: Sketch 62 (91390) - https://sketch.com -->
    <title>Locksmith</title>
    <desc>Created with Sketch.</desc>
    <g id="Locksmith" stroke="none" stroke-width="1" fill="none" fill-rule="evenodd">
        <path d="M13.1916968,19.1067433 L10.4907862,19.1067433 L10.8873,15.927095 C10.528262,15.6540071 10.2945634,15.2332695 10.2945634,14.7554192 C10.2945634,13.9300356 10.9883631,13.2605189 11.8432977,13.2605189 L11.8433198,13.2605189 C12.6961319,13.2605189 13.3920542,13.9279814 13.3920542,14.7554192 C13.3920542,15.2312366 13.1562109,15.6540071 12.7992733,15.927095 L13.1916968,19.1067433 Z M11.8417722,2.00051265 C15.1932298,2.04554815 17.9409283,5.08823035 17.9409283,8.75104881 L17.9409283,8.75104881 L17.94,9.641 L18.2892456,9.70106828 C18.3747546,9.71965289 18.4603796,9.73559479 18.5460018,9.75205827 L18.8027414,9.80617779 C19.3199738,9.92611647 19.6814881,10.3899935 19.6835443,10.9050986 L19.6835443,10.9050986 L19.6835443,20.7874469 C19.6835443,21.267437 19.3690129,21.7050153 18.8986972,21.8581217 C14.1944564,23.3806261 9.49118836,23.3806261 4.7847587,21.8581217 C4.31245309,21.7051009 4,21.267437 4,20.7874469 L4,20.7874469 L4,10.9050986 C4,10.3879606 4.36142589,9.92814933 4.88078076,9.80617779 C5.049654,9.76680452 5.22115829,9.7382375 5.39009787,9.70106828 L5.39009787,9.70106828 L5.742,9.641 L5.74261603,8.66579897 C5.74261603,5.038707 8.33351024,2.08581274 11.621557,2.00183672 Z M11.8417722,4.62544857 C9.92546173,4.65533514 8.35199551,6.62969644 8.35199551,8.72410977 L8.35199551,8.72410977 L8.35137626,9.20411449 C10.7440479,8.92455129 13.1350632,8.93264528 15.5257648,9.22839646 L15.327,9.206 L15.3275971,8.66579897 C15.3275971,6.61304091 13.8838028,4.71722928 12.0231065,4.62835329 Z" id="Combined-Shape" fill="#1F2F3C"></path>
    </g>
</svg>