<?xml version="1.0" encoding="UTF-8"?>
<svg width="24px" height="24px" viewBox="0 0 24 24" version="1.1" xmlns="http://www.w3.org/2000/svg" xmlns:xlink="http://www.w3.org/1999/xlink">
    <!-- Generator: Sketch 62 (91390) - https://sketch.com -->
    <title>Money</title>
    <desc>Created with Sketch.</desc>
    <defs>
        <path d="M11.8,10.9 C9.53000004,10.31 8.80000004,9.70000004 8.80000004,8.75000004 C8.80000004,7.66000003 9.81000004,6.90000003 11.5,6.90000003 C13.2800001,6.90000003 13.9400001,7.75000003 14.0000001,9.00000001 L16.2100001,9.00000001 C16.1400001,7.28000003 15.0900001,5.70000002 13.0000001,5.19000002 L13.0000001,3.00000001 L10,3.00000001 L10,5.16000002 C8.06000003,5.58000002 6.50000003,6.84000003 6.50000003,8.77000004 C6.50000003,11.08 8.41000004,12.2300001 11.2,12.9000001 C13.7000001,13.5 14.2000001,14.3800001 14.2000001,15.3100001 C14.2000001,16 13.7100001,17.1000001 11.5,17.1000001 C9.44000004,17.1000001 8.63000004,16.1800001 8.52000004,15 L6.32000003,15 C6.44000003,17.1900001 8.08000003,18.4200001 10,18.8300001 L10,21 L13.0000001,21 L13.0000001,18.8500001 C14.9500001,18.4800001 16.5000001,17.3500001 16.5000001,15.3000001 C16.5000001,12.4600001 14.0700001,11.49 11.8,10.9 L11.8,10.9 Z" id="path-1"></path>
    </defs>
    <g id="Money" stroke="none" stroke-width="1" fill="none" fill-rule="evenodd">
        <mask id="mask-2" fill="white">
            <use xlink:href="#path-1"></use>
        </mask>
        <use id="Icon" fill="#6D8190" xlink:href="#path-1"></use>
    </g>
</svg>