<?xml version="1.0" encoding="UTF-8"?>
<svg width="24px" height="24px" viewBox="0 0 24 24" version="1.1" xmlns="http://www.w3.org/2000/svg" xmlns:xlink="http://www.w3.org/1999/xlink">
    <!-- Generator: Sketch 62 (91390) - https://sketch.com -->
    <title>MultiService</title>
    <desc>Created with Sketch.</desc>
    <g id="MultiService" stroke="none" stroke-width="1" fill="none" fill-rule="evenodd">
        <path d="M19.4617537,10.4210526 C20.3443572,10.4210526 20.6644106,10.51295 20.9870772,10.685514 C21.3097439,10.858078 21.5629746,11.1113087 21.7355386,11.4339754 C21.9081026,11.7566421 22,12.0766954 22,12.959299 L22,19.4617537 C22,20.3443572 21.9081026,20.6644106 21.7355386,20.9870772 C21.5629746,21.3097439 21.3097439,21.5629746 20.9870772,21.7355386 C20.6644106,21.9081026 20.3443572,22 19.4617537,22 L12.959299,22 C12.0766954,22 11.7566421,21.9081026 11.4339754,21.7355386 C11.1113087,21.5629746 10.858078,21.3097439 10.685514,20.9870772 C10.51295,20.6644106 10.4210526,20.3443572 10.4210526,19.4617537 L10.4210526,12.959299 C10.4210526,12.0766954 10.51295,11.7566421 10.685514,11.4339754 C10.858078,11.1113087 11.1113087,10.858078 11.4339754,10.685514 C11.7566421,10.51295 12.0766954,10.4210526 12.959299,10.4210526 L19.4617537,10.4210526 Z M15.2512273,6.21052632 C16.1338309,6.21052632 16.4538843,6.30242367 16.7765509,6.47498769 C17.0992176,6.64755171 17.3524483,6.9007824 17.5250123,7.22344907 C17.6657352,7.48657792 17.7528138,7.74796891 17.7801578,8.31411266 L10.0431277,8.31578947 C9.67031835,8.31578947 9.4120709,8.36565936 9.14125233,8.51049471 C8.87204185,8.65447005 8.65447005,8.87204185 8.51049471,9.14125233 C8.38979858,9.36693447 8.3350507,9.58388667 8.32015407,9.86568126 L8.31578947,10.0431277 L8.31411266,17.7801578 C7.74796891,17.7528138 7.48657792,17.6657352 7.22344907,17.5250123 C6.9007824,17.3524483 6.64755171,17.0992176 6.47498769,16.7765509 C6.30242367,16.4538843 6.21052632,16.1338309 6.21052632,15.2512273 L6.21052632,8.74877266 C6.21052632,7.86616911 6.30242367,7.54611574 6.47498769,7.22344907 C6.64755171,6.9007824 6.9007824,6.64755171 7.22344907,6.47498769 C7.54611574,6.30242367 7.86616911,6.21052632 8.74877266,6.21052632 L15.2512273,6.21052632 Z M11.040701,2 C11.9233046,2 12.2433579,2.09189736 12.5660246,2.26446138 C12.8886913,2.4370254 13.141922,2.69025609 13.314486,3.01292275 C13.4552088,3.27605161 13.5422875,3.53744259 13.5696315,4.10358634 L5.83260137,4.10526316 C5.45979204,4.10526316 5.20154459,4.15513304 4.93072602,4.2999684 C4.66151554,4.44394374 4.44394374,4.66151554 4.2999684,4.93072602 C4.15513304,5.20154459 4.10526316,5.45979204 4.10526316,5.83260137 L4.10526316,5.83260137 L4.10358634,13.5696315 C3.53744259,13.5422875 3.27605161,13.4552088 3.01292275,13.314486 C2.69025609,13.141922 2.4370254,12.8886913 2.26446138,12.5660246 C2.09189736,12.2433579 2,11.9233046 2,11.040701 L2,4.53824635 C2,3.6556428 2.09189736,3.33558942 2.26446138,3.01292275 C2.4370254,2.69025609 2.69025609,2.4370254 3.01292275,2.26446138 C3.33558942,2.09189736 3.6556428,2 4.53824635,2 L11.040701,2 Z" id="Combined-Shape" fill="#1F2F3C"></path>
    </g>
</svg>