<?xml version="1.0" encoding="UTF-8"?>
<svg width="24px" height="24px" viewBox="0 0 24 24" version="1.1" xmlns="http://www.w3.org/2000/svg" xmlns:xlink="http://www.w3.org/1999/xlink">
    <!-- Generator: Sketch 62 (91390) - https://sketch.com -->
    <title>Notification</title>
    <desc>Created with Sketch.</desc>
    <g id="Notification" stroke="none" stroke-width="1" fill="none" fill-rule="evenodd">
        <path d="M11.5,22 C12.6,22 13.5,21.1 13.5,20 L9.5,20 C9.5,21.1 10.4,22 11.5,22 L11.5,22 Z M18,16 L18,10.5 C18,7.43 15.87,4.86 13,4.18 L13,3.5 C13,2.67 12.33,2 11.5,2 C10.67,2 10,2.67 10,3.5 L10,4.18 C7.13,4.86 5,7.43 5,10.5 L5,16 L3,18 L3,19 L20,19 L20,18 L18,16 L18,16 Z" id="Shape" fill="#6D8190"></path>
    </g>
</svg>