<?xml version="1.0" encoding="UTF-8"?>
<svg width="24px" height="24px" viewBox="0 0 24 24" version="1.1" xmlns="http://www.w3.org/2000/svg" xmlns:xlink="http://www.w3.org/1999/xlink">
    <!-- Generator: Sketch 62 (91390) - https://sketch.com -->
    <title>Painting</title>
    <desc>Created with Sketch.</desc>
    <g id="Painting" stroke="none" stroke-width="1" fill="none" fill-rule="evenodd">
        <path d="M20.313575,3.91625 L18.341675,3.91625 L18.341675,2.61845 C18.341675,2.276675 18.065,2 17.723225,2 L2.61845,2 C2.2772,2 2,2.276675 2,2.61845 L2,6.78905 C2,7.130825 2.2772,7.4075 2.61845,7.4075 L17.723225,7.4075 C18.065,7.4075 18.341675,7.130825 18.341675,6.78905 L18.341675,5.49125 L19.526075,5.49125 L19.526075,9.602 L10.1711,9.602 C9.7364,9.602 9.3836,9.954275 9.3836,10.3895 L9.3836,15.057275 L8.8187,15.057275 L8.8187,23 L11.52245,23 L11.52245,15.057275 L10.9586,15.057275 L10.9586,11.177 L20.313575,11.177 C20.748275,11.177 21.101075,10.8242 21.101075,10.3895 L21.101075,4.70375 C21.101075,4.268525 20.748275,3.91625 20.313575,3.91625" id="Fill-1" fill="#1F2F3C"></path>
    </g>
</svg>