<?xml version="1.0" encoding="UTF-8"?>
<svg width="24px" height="24px" viewBox="0 0 24 24" version="1.1" xmlns="http://www.w3.org/2000/svg" xmlns:xlink="http://www.w3.org/1999/xlink">
    <!-- Generator: Sketch 62 (91390) - https://sketch.com -->
    <title>Percent</title>
    <desc>Created with Sketch.</desc>
    <g id="Percent" stroke="none" stroke-width="1" fill="none" fill-rule="evenodd">
        <path d="M7.38274605,12.5042527 C8.38072094,12.5042527 9.19076549,12.164034 9.81287971,11.4835966 C10.4349939,10.8031592 10.746051,9.8926691 10.746051,8.75212637 C10.746051,7.61158364 10.4349939,6.70109356 9.81287971,6.02065614 C9.19076549,5.34021871 8.38072094,5 7.38274605,5 C6.38477116,5 5.57148643,5.34021871 4.94289186,6.02065614 C4.31429729,6.70109356 4,7.61158364 4,8.75212637 C4,9.8926691 4.31429729,10.8031592 4.94289186,11.4835966 C5.57148643,12.164034 6.38477116,12.5042527 7.38274605,12.5042527 Z M8.51032807,18.764277 L17.8031592,5.15552855 L15.4896719,5.15552855 L6.19684083,18.764277 L8.51032807,18.764277 Z M7.38274605,10.9100851 C6.95504253,10.9100851 6.61158364,10.7253949 6.35236938,10.3560146 C6.09315512,9.98663426 5.963548,9.45200486 5.963548,8.75212637 C5.963548,8.05224787 6.09315512,7.51761847 6.35236938,7.14823815 C6.61158364,6.77885784 6.95504253,6.59416768 7.38274605,6.59416768 C7.82341029,6.59416768 8.17010936,6.77561766 8.42284326,7.13851762 C8.67557716,7.50141758 8.80194411,8.03928716 8.80194411,8.75212637 C8.80194411,9.46496557 8.67557716,10.0028352 8.42284326,10.3657351 C8.17010936,10.7286351 7.82341029,10.9100851 7.38274605,10.9100851 Z M16.6172539,18.9198056 C17.6152288,18.9198056 18.4285136,18.5795869 19.0571081,17.8991495 C19.6857027,17.218712 20,16.308222 20,15.1676792 C20,14.0271365 19.6857027,13.1166464 19.0571081,12.436209 C18.4285136,11.7557716 17.6152288,11.4155529 16.6172539,11.4155529 C15.9692183,11.4155529 15.3892264,11.5678412 14.8772783,11.872418 C14.3653301,12.1769947 13.9667882,12.6144188 13.6816525,13.1846902 C13.3965168,13.7549615 13.253949,14.4159579 13.253949,15.1676792 C13.253949,15.9194006 13.3965168,16.5803969 13.6816525,17.1506683 C13.9667882,17.7209397 14.3653301,18.1583637 14.8772783,18.4629405 C15.3892264,18.7675172 15.9692183,18.9198056 16.6172539,18.9198056 Z M16.6172539,17.3256379 C16.1895504,17.3256379 15.8460915,17.1441879 15.5868773,16.781288 C15.327663,16.418388 15.1980559,15.8805184 15.1980559,15.1676792 C15.1980559,14.45484 15.327663,13.9169704 15.5868773,13.5540705 C15.8460915,13.1911705 16.1895504,13.0097205 16.6172539,13.0097205 C17.0579182,13.0097205 17.4046173,13.1944107 17.6573512,13.563791 C17.9100851,13.9331713 18.036452,14.4678007 18.036452,15.1676792 C18.036452,15.8675577 17.9100851,16.4021871 17.6573512,16.7715674 C17.4046173,17.1409478 17.0579182,17.3256379 16.6172539,17.3256379 Z" id="%" fill="#6D8190"></path>
    </g>
</svg>