<?xml version="1.0" encoding="UTF-8"?>
<svg width="24px" height="24px" viewBox="0 0 24 24" version="1.1" xmlns="http://www.w3.org/2000/svg" xmlns:xlink="http://www.w3.org/1999/xlink">
    <!-- Generator: Sketch 62 (91390) - https://sketch.com -->
    <title>PestControl</title>
    <desc>Created with Sketch.</desc>
    <g id="PestControl" stroke="none" stroke-width="1" fill="none" fill-rule="evenodd">
        <path d="M3.62293777,9.62348726 C4.04132443,9.54694681 4.4473582,9.79963843 4.52983957,10.1878898 C4.65460693,10.7751872 4.67593437,10.8698675 4.75182376,11.1385128 C4.8922627,11.6356609 5.05826668,11.9686335 5.1327203,12.0155447 C5.28939498,12.1142612 5.47611872,12.1929115 5.7057224,12.2595937 C5.90639776,12.3178746 5.89899153,12.3163073 6.49996059,12.4353601 C6.50211824,12.4357875 6.50427031,12.4362143 6.50641684,12.4366404 C6.54761825,11.8624677 6.61015377,11.2616115 6.69302917,10.6335729 L17.2354362,10.6335729 C17.319042,11.2671465 17.3819478,11.8730565 17.4241537,12.4513028 L17.5000394,12.4353601 L17.5000394,12.4353601 C18.1010085,12.3163073 18.0936022,12.3178746 18.2942776,12.2595937 C18.5238813,12.1929115 18.710605,12.1142612 18.8672797,12.0155447 C18.9417333,11.9686335 19.1077373,11.6356609 19.2481762,11.1385128 C19.3240656,10.8698675 19.3453931,10.7751872 19.4701604,10.1878898 C19.5526418,9.79963843 19.9586756,9.54694681 20.3770622,9.62348726 C20.7954489,9.70002771 21.0677539,10.0768159 20.9852726,10.4650673 C20.8530002,11.0876918 20.8294449,11.1922624 20.7419768,11.5018958 C20.5080642,12.3299371 20.2289801,12.8897269 19.7347472,13.2011297 C19.4413297,13.3860041 19.1198577,13.5214119 18.7555208,13.6272239 C18.4865002,13.7053538 18.4923584,13.7041141 17.8224426,13.8368253 C17.6735683,13.8663175 17.5668225,13.88997 17.4866185,13.9116895 C17.4898436,14.1288815 17.4887608,14.3404573 17.4842286,14.5474233 C17.5630066,14.5681188 17.6708979,14.5920889 17.8224426,14.6221102 C18.4923584,14.7548214 18.4865002,14.7535817 18.7555208,14.8317116 C19.1198577,14.9375235 19.4413297,15.0729314 19.7347472,15.2578058 C20.2289801,15.5692086 20.5080642,16.1289983 20.7419768,16.9570396 C20.8294449,17.2666731 20.8530002,17.3712437 20.9852726,17.9938682 C21.0677539,18.3821196 20.7954489,18.7589078 20.3770622,18.8354482 C19.9586756,18.9119887 19.5526418,18.659297 19.4701604,18.2710457 C19.3453931,17.6837483 19.3240656,17.589068 19.2481762,17.3204227 C19.1077373,16.8232745 18.9417333,16.4903019 18.8672797,16.4433907 C18.710605,16.3446742 18.5238813,16.266024 18.2942776,16.1993417 C18.0936022,16.1410609 18.1010085,16.1426281 17.5000394,16.0235754 C17.4590441,16.0154541 17.4200626,16.0075784 17.3828415,15.9998627 C17.2479586,17.1855199 16.9658444,18.179899 16.5407684,18.9832226 C16.9053623,19.0889151 17.226181,19.2241621 17.5190501,19.4086909 C18.013283,19.7200937 18.292367,20.2798835 18.5262797,21.1079248 C18.6137478,21.4175582 18.6373031,21.5221289 18.7695755,22.1447534 C18.8520568,22.5330047 18.5797518,22.9097929 18.1613651,22.9863334 C17.7429785,23.0628738 17.3369447,22.8101822 17.2544633,22.4219308 C17.129696,21.8346334 17.1083685,21.7399531 17.0324791,21.4713078 C16.8920402,20.9741597 16.7260362,20.6411871 16.6515826,20.5942759 C16.4949079,20.4955594 16.3081842,20.4169091 16.0785805,20.3502269 C15.9230222,20.3050491 15.892499,20.2958337 15.6067074,20.2385191 C14.7101437,21.0904876 13.4965753,21.5165004 11.9642327,21.5165004 C10.4392058,21.5165004 9.22991646,21.0945456 8.33636472,20.250636 C8.1023546,20.2973779 8.06557555,20.3083606 7.92141951,20.3502269 C7.69181584,20.4169091 7.50509209,20.4955594 7.34841742,20.5942759 C7.2739638,20.6411871 7.10795981,20.9741597 6.96752087,21.4713078 C6.89163148,21.7399531 6.87030404,21.8346334 6.74553668,22.4219308 C6.66305532,22.8101822 6.25702155,23.0628738 5.83863488,22.9863334 C5.42024822,22.9097929 5.14794317,22.5330047 5.23042454,22.1447534 C5.36269689,21.5221289 5.38625221,21.4175582 5.4737203,21.1079248 C5.70763296,20.2798835 5.98671697,19.7200937 6.48094989,19.4086909 C6.75736564,19.2345289 7.05867889,19.1042669 7.39727187,19.0012922 C6.96870577,18.1983503 6.68393931,17.202842 6.54311067,16.0149739 L6.49996059,16.0235754 L6.49996059,16.0235754 C5.89899153,16.1426281 5.90639776,16.1410609 5.7057224,16.1993417 C5.47611872,16.266024 5.28939498,16.3446742 5.1327203,16.4433907 C5.05826668,16.4903019 4.8922627,16.8232745 4.75182376,17.3204227 C4.67593437,17.589068 4.65460693,17.6837483 4.52983957,18.2710457 C4.4473582,18.659297 4.04132443,18.9119887 3.62293777,18.8354482 C3.2045511,18.7589078 2.93224605,18.3821196 3.01472742,17.9938682 C3.14699978,17.3712437 3.17055509,17.2666731 3.25802318,16.9570396 C3.49193585,16.1289983 3.77101985,15.5692086 4.26525277,15.2578058 C4.55867028,15.0729314 4.88014228,14.9375235 5.24447921,14.8317116 C5.51349984,14.7535817 5.50764158,14.7548214 6.17755736,14.6221102 C6.28898554,14.6000361 6.37681291,14.5812335 6.447575,14.5640643 C6.43963917,14.3470023 6.43849024,14.1234268 6.44119329,13.8947034 C6.37335963,13.8769634 6.28680068,13.8584666 6.17755736,13.8368253 C5.50764158,13.7041141 5.51349984,13.7053538 5.24447921,13.6272239 C4.88014228,13.5214119 4.55867028,13.3860041 4.26525277,13.2011297 C3.77101985,12.8897269 3.49193585,12.3299371 3.25802318,11.5018958 C3.17055509,11.1922624 3.14699978,11.0876918 3.01472742,10.4650673 C2.93224605,10.0768159 3.2045511,9.70002771 3.62293777,9.62348726 Z M15.6659427,2 C16.0923664,1.99662806 16.4410203,2.3146586 16.4446831,2.71036809 C16.4559527,3.92789154 16.3983777,4.58362796 16.108759,5.26317976 C15.9944701,5.53134331 15.8640612,5.7629971 15.706342,5.97623512 C16.4166327,6.80441276 16.8772126,7.96523625 17.0888804,9.4579885 L17.0888804,9.4579885 L6.68181818,9.4579885 C6.89939848,7.92353926 7.37999077,6.73982127 8.12359504,5.90683454 L8.05578558,5.80936523 C7.9480789,5.64258705 7.85395583,5.46302138 7.76878517,5.26317976 C7.47916643,4.58362796 7.42159142,3.92789154 7.43286103,2.71036809 C7.43652378,2.3146586 7.78517773,1.99662806 8.21160142,2 C8.63802511,2.00342593 8.98074056,2.32696723 8.97707781,2.72267672 C8.96757026,3.74983449 9.0150787,4.29092021 9.20482811,4.73614192 C9.2415811,4.82237793 9.28072804,4.90216852 9.32403845,4.97769957 C10.0393047,4.6074984 10.8931785,4.42307692 11.8853493,4.42307692 C12.9153646,4.42307692 13.7963315,4.62183554 14.5282502,5.01935276 C14.5819856,4.93199491 14.6290411,4.83861934 14.672716,4.73614192 C14.8624654,4.29092021 14.9099739,3.74983449 14.9004663,2.72267672 C14.8968036,2.32696723 15.239519,2.00342593 15.6659427,2 Z" id="Combined-Shape" fill="#1F2F3C"></path>
    </g>
</svg>