<?xml version="1.0" encoding="UTF-8"?>
<svg width="24px" height="24px" viewBox="0 0 24 24" version="1.1" xmlns="http://www.w3.org/2000/svg" xmlns:xlink="http://www.w3.org/1999/xlink">
    <!-- Generator: Sketch 62 (91390) - https://sketch.com -->
    <title>PinDrop</title>
    <desc>Created with Sketch.</desc>
    <defs>
        <path d="M18,8 C18,4.69 15.31,2 12,2 C8.69,2 6,4.69 6,8 C6,12.5 12,19 12,19 C12,19 18,12.5 18,8 L18,8 Z M10,8 C10,6.9 10.9,6 12,6 C13.1,6 14,6.9 14,8 C14,9.1 13.11,10 12,10 C10.9,10 10,9.1 10,8 L10,8 Z M5,20 L5,22 L19,22 L19,20 L5,20 L5,20 Z" id="path-1"></path>
    </defs>
    <g id="PinDrop" stroke="none" stroke-width="1" fill="none" fill-rule="evenodd">
        <mask id="mask-2" fill="white">
            <use xlink:href="#path-1"></use>
        </mask>
        <use id="Mask" fill="#6D8190" xlink:href="#path-1"></use>
    </g>
</svg>