<?xml version="1.0" encoding="UTF-8"?>
<svg width="24px" height="24px" viewBox="0 0 24 24" version="1.1" xmlns="http://www.w3.org/2000/svg" xmlns:xlink="http://www.w3.org/1999/xlink">
    <!-- Generator: Sketch 62 (91390) - https://sketch.com -->
    <title>Plumbing</title>
    <desc>Created with Sketch.</desc>
    <g id="Plumbing" stroke="none" stroke-width="1" fill="none" fill-rule="evenodd">
        <path d="M11.7027277,22.9 C11.3753236,22.8435135 11.0297304,22.8058559 10.7023264,22.7305405 C7.82844619,22.1468468 5.57299592,19.6990991 5.08188981,16.7053153 C4.86362043,15.3872973 5.10007893,14.1445946 5.57299592,12.9395495 C6.26418229,11.131982 7.19182716,9.45621622 8.19222849,7.81810811 C9.37452098,5.85990991 10.6659481,3.99585586 12.0119427,2.16945946 C12.0483209,2.11297297 12.1028882,2.07531532 12.1392665,2 C12.1938338,2.05648649 12.230212,2.09414414 12.2665903,2.15063063 C14.0855018,4.61720721 15.7952786,7.14027027 17.2685969,9.83279279 C17.905216,11.0001802 18.4872676,12.2240541 18.9238064,13.4855856 C19.5058581,15.1613514 19.3967234,16.8182883 18.705537,18.4187387 C17.6505683,20.8664865 15.7952786,22.3163063 13.2488025,22.8058559 C13.012344,22.8435135 12.7758855,22.8623423 12.539427,22.9 L11.7027277,22.9 L11.7027277,22.9 L11.7027277,22.9 Z M12.2187166,20.7 C12.4339631,20.6823484 12.685084,20.6823484 12.9003304,20.6117422 C13.1693885,20.5234845 13.4384466,20.3999236 13.6895675,20.2587112 C13.7433791,20.2234081 13.815128,20.0998473 13.7971908,20.0292411 C13.7792535,19.9762864 13.6716303,19.9409833 13.5819443,19.8880286 C13.5640071,19.8703771 13.5101955,19.8880286 13.4922582,19.8703771 C13.1873257,19.835074 12.864456,19.8174224 12.5774607,19.7468162 C10.33531,19.2702243 8.52365214,17.3815084 8.63127538,14.9455943 C8.63127538,14.8043819 8.63127538,14.6631695 8.59540097,14.521957 C8.46984052,14.0630167 8.07522199,13.9571074 7.75235228,14.3101384 C7.57298022,14.521957 7.41154536,14.7690788 7.33979654,15.033852 C7.07073844,16.0223389 7.19629889,16.9755227 7.66266625,17.8757518 C8.59540097,19.7291647 10.1918123,20.5587876 12.2187166,20.7 L12.2187166,20.7 L12.2187166,20.7 Z" id="Icon/Plumbing/Blue" fill="#1F2F3C"></path>
    </g>
</svg>