<?xml version="1.0" encoding="UTF-8"?>
<svg width="24px" height="24px" viewBox="0 0 24 24" version="1.1" xmlns="http://www.w3.org/2000/svg" xmlns:xlink="http://www.w3.org/1999/xlink">
    <!-- Generator: Sketch 62 (91390) - https://sketch.com -->
    <title>Pool</title>
    <desc>Created with Sketch.</desc>
    <g id="Pool" stroke="none" stroke-width="1" fill="none" fill-rule="evenodd">
        <path d="M9.3539858,13.6304908 L14.8483294,13.6304908 L14.8483294,15.9302493 C14.565539,16.0502211 14.2976322,16.1918418 14.0563357,16.3596218 C12.928782,17.1434971 10.8928711,17.141242 9.7003703,16.3546606 C9.58806595,16.280693 9.47260445,16.2116867 9.3539858,16.1467397 L9.3539858,13.6304908 Z M9.3539858,11.8264049 L14.8483294,11.8264049 L14.8483294,9.87212886 L9.3539858,9.87212886 L9.3539858,11.8264049 Z M3.38697166,20.1767068 C5.15136768,18.9499283 7.86471289,18.9377508 9.7003703,20.1482924 C10.8924201,20.9348739 12.928782,20.93758 14.0563357,20.1532536 C15.7616479,18.9675182 18.6680303,18.9688712 20.403561,20.1568618 C20.8144415,20.4382992 20.9199806,20.999821 20.6385432,21.4107015 C20.3566547,21.8220331 19.795584,21.9266701 19.3842524,21.6456837 C18.2670722,20.8803003 16.1779408,20.875339 15.0860178,21.6344082 C14.2205075,22.2360708 13.0658926,22.5373532 11.9040612,22.5373532 C10.7553095,22.5373532 9.59979251,22.2432872 8.70631896,21.6542531 C7.49442425,20.854592 5.56991561,20.8554941 4.41710472,21.6578613 C4.00802824,21.9424558 3.44605547,21.840976 3.16146092,21.4323506 C2.87731739,21.0232741 2.97789518,20.4613013 3.38697166,20.1767068 Z M18.1096657,2 L18.1096657,3.80408591 C16.7940361,3.80408591 16.6524153,5.80797433 16.6524153,6.66942535 L16.6524153,6.66942535 L16.6524153,15.4981708 C17.9878899,15.3854154 19.3937239,15.671814 20.403561,16.36323 C20.8144415,16.6446674 20.9199806,17.2061891 20.6385432,17.6170697 C20.3571058,18.0284013 19.795584,18.1330382 19.3842524,17.8520519 C18.2670722,17.0871194 16.1779408,17.0817072 15.0860178,17.8407763 C14.2205075,18.442439 13.0663436,18.7437218 11.9040612,18.7437218 C10.7557606,18.7441723 9.59979251,18.4501063 8.70631896,17.8606213 C7.49397323,17.0605092 5.56991561,17.0632153 4.41755574,17.8642294 C4.00757721,18.149275 3.44605547,18.0477952 3.16146092,17.6391697 C2.87731739,17.2300932 2.97789518,16.6676695 3.38697166,16.3835259 C4.53933154,15.5816097 6.09625768,15.3019764 7.5498999,15.5396647 L7.5498999,15.5396647 L7.5498999,6.66942535 C7.5498999,3.74545312 8.76901095,2 10.8112362,2 L10.8112362,2 L10.8112362,3.80408591 C9.49560655,3.80408591 9.3539858,5.80797433 9.3539858,6.66942535 L9.3539858,6.66942535 L9.3539858,8.06804295 L14.8483294,8.06804295 L14.8483294,6.66942535 C14.8483294,3.74545312 16.0674405,2 18.1096657,2 L18.1096657,2 Z" id="Fill-1" fill="#1F2F3C"></path>
    </g>
</svg>