<?xml version="1.0" encoding="UTF-8"?>
<svg width="24px" height="24px" viewBox="0 0 24 24" version="1.1" xmlns="http://www.w3.org/2000/svg" xmlns:xlink="http://www.w3.org/1999/xlink">
    <!-- Generator: Sketch 62 (91390) - https://sketch.com -->
    <title>Powerwashing</title>
    <desc>Created with Sketch.</desc>
    <g id="Powerwashing" stroke="none" stroke-width="1" fill="none" fill-rule="evenodd">
        <path d="M13.5811942,18.2311735 C14.6700559,18.395638 15.4681033,18.6182354 15.9753365,18.8989657 C16.1072223,18.960246 16.2314197,19.0461993 16.3409613,19.1557409 C16.817868,19.6326476 16.8476747,20.3873466 16.4303813,20.8989773 L16.3407716,20.998098 C15.8320711,21.5067984 15.0073047,21.5067984 14.4986043,20.998098 C14.0353016,20.5347952 13.7294982,19.6124871 13.5811942,18.2311735 Z M9.28236107,13.9327832 C10.3712228,14.0972477 11.1692702,14.3198451 11.6765034,14.6005754 C11.8083892,14.6618557 11.9325866,14.747809 12.0421282,14.8573506 C12.5190349,15.3342573 12.5488416,16.0889563 12.1315482,16.600587 L12.0419385,16.6997076 C11.533238,17.2084081 10.7084716,17.2084081 10.1997712,16.6997076 C9.73646846,16.2364049 9.43066509,15.3140968 9.28236107,13.9327832 Z M13.5811942,13.3187274 C14.6700559,13.4831919 15.4681033,13.7057893 15.9753365,13.9865196 C16.1072223,14.0477999 16.2314197,14.1337533 16.3409613,14.2432948 C16.817868,14.7202015 16.8476747,15.4749005 16.4303813,15.9865312 L16.3407716,16.0856519 C15.8320711,16.5943523 15.0073047,16.5943523 14.4986043,16.0856519 C14.0353016,15.6223492 13.7294982,14.700041 13.5811942,13.3187274 Z M18.4941463,13.3187274 C19.583008,13.4831919 20.3810554,13.7057893 20.8882886,13.9865196 C21.0201744,14.0477999 21.1443719,14.1337533 21.2539134,14.2432948 C21.7308201,14.7202015 21.7606268,15.4749005 21.3433334,15.9865312 L21.2537237,16.0856519 C20.7450232,16.5943523 19.9202569,16.5943523 19.4115564,16.0856519 C18.9482537,15.6223492 18.6424503,14.700041 18.4941463,13.3187274 Z M9.89648008,9.63439289 C10.9853418,9.79885737 11.7833892,10.0214548 12.2906224,10.3021851 C12.4225082,10.3634654 12.5467057,10.4494187 12.6562472,10.5589603 C13.1331539,11.035867 13.1629606,11.790566 12.7456672,12.3021967 L12.6560575,12.4013173 C12.147357,12.9100178 11.3225906,12.9100178 10.8138902,12.4013173 C10.3505875,11.9380146 10.0447841,11.0157065 9.89648008,9.63439289 Z M14.1953132,9.02033713 C15.2841749,9.18480161 16.0822223,9.407399 16.5894555,9.6881293 C16.7213413,9.74940961 16.8455388,9.83536294 16.9550803,9.94490453 C17.431987,10.4218112 17.4617937,11.1765102 17.0445003,11.6881409 L16.9548906,11.7872616 C16.4461901,12.295962 15.6214237,12.295962 15.1127233,11.7872616 C14.6494206,11.3239588 14.3436172,10.4016507 14.1953132,9.02033713 Z M4.78012203,2.10683641 L7.27446674,4.04683154 C7.50727968,4.22790353 7.69577599,4.44483587 7.83822263,4.68376549 L8.35731095,4.16401878 C8.89937921,3.62195052 9.73718469,3.50974206 10.4027901,3.89006491 L10.8385165,4.1390363 C11.4978593,4.51578078 11.7269506,5.35569553 11.3502061,6.01503839 C11.2895687,6.12116024 11.2150524,6.21872335 11.1286269,6.30514887 L6.30514887,11.1286269 C5.76818079,11.665595 4.89758354,11.665595 4.36061547,11.1286269 C4.27418996,11.0422014 4.19967368,10.9446383 4.1390363,10.8385165 L3.89006491,10.4027901 C3.50974206,9.73718469 3.62195052,8.89937921 4.16401878,8.35731095 L4.68397707,7.83826815 C4.52424006,7.74283954 4.37358377,7.62634229 4.23601786,7.48877638 C4.16857313,7.42133164 4.10538902,7.34975689 4.04683154,7.27446674 L2.10683641,4.78012203 C1.67337328,4.22279771 1.72274114,3.42991947 2.22199092,2.93066969 L2.93066969,2.22199092 C3.42991947,1.72274114 4.22279771,1.67337328 4.78012203,2.10683641 Z" id="Combined-Shape" fill="#1F2F3C"></path>
    </g>
</svg>