<?xml version="1.0" encoding="UTF-8"?>
<svg width="24px" height="24px" viewBox="0 0 24 24" version="1.1" xmlns="http://www.w3.org/2000/svg" xmlns:xlink="http://www.w3.org/1999/xlink">
    <!-- Generator: Sketch 62 (91390) - https://sketch.com -->
    <title>Queued</title>
    <desc>Created with Sketch.</desc>
    <defs>
        <path d="M5.6,7.2 L4,7.2 L4,18.4 C4,19.28 4.72,20 5.6,20 L16.8,20 L16.8,18.4 L5.6,18.4 L5.6,7.2 L5.6,7.2 Z M18.4,4 L8.8,4 C7.92,4 7.2,4.72 7.2,5.6 L7.2,15.2 C7.2,16.08 7.92,16.8 8.8,16.8 L18.4,16.8 C19.28,16.8 20,16.08 20,15.2 L20,5.6 C20,4.72 19.28,4 18.4,4 L18.4,4 Z M12,14 L12,6.8 L16.8,10.4 L12,14 L12,14 Z" id="path-1"></path>
    </defs>
    <g id="Queued" stroke="none" stroke-width="1" fill="none" fill-rule="evenodd">
        <mask id="mask-2" fill="white">
            <use xlink:href="#path-1"></use>
        </mask>
        <use id="Icon" fill="#41596D" xlink:href="#path-1"></use>
    </g>
</svg>