<?xml version="1.0" encoding="UTF-8"?>
<svg width="24px" height="24px" viewBox="0 0 24 24" version="1.1" xmlns="http://www.w3.org/2000/svg" xmlns:xlink="http://www.w3.org/1999/xlink">
    <!-- Generator: Sketch 62 (91390) - https://sketch.com -->
    <title>Restoration</title>
    <desc>Created with Sketch.</desc>
    <g id="Restoration" stroke="none" stroke-width="1" fill="none" fill-rule="evenodd">
        <path d="M11.1214715,3 C15.5672344,3 19.3464934,6.21457628 20.1008178,10.5513057 L20.1008178,10.5513057 L20.8776278,9.63237045 C20.9866612,9.50297283 21.1402413,9.42363724 21.3095189,9.40921259 C21.4775237,9.3960607 21.6442557,9.44739549 21.7740776,9.55727741 C21.9043237,9.66673507 21.983235,9.82073945 21.9976597,9.99001699 C22.0120843,10.1592945 21.9594768,10.3243295 21.8495949,10.4541514 L21.8495949,10.4541514 L20.0545741,12.5686358 C20.0049363,12.617425 19.952753,12.6496684 19.9162671,12.6700326 L19.9162671,12.6700326 L19.8611141,12.703973 C19.7096552,12.7710052 19.5412262,12.7777932 19.3749184,12.7124581 L19.3749184,12.7124581 L19.3010981,12.6730024 C19.260794,12.6517897 19.2285506,12.635668 19.1954588,12.6072429 L19.1954588,12.6072429 L17.1166118,10.8508293 C16.8493314,10.6242775 16.8153911,10.2220842 17.041943,9.95395536 C17.1514006,9.82413348 17.305405,9.74479789 17.4746825,9.73079749 C17.6426873,9.71382731 17.8089951,9.76940465 17.9383927,9.87886231 L17.9383927,9.87886231 L18.820842,10.6247017 C18.1136098,6.96677949 14.8973365,4.27276347 11.1214715,4.27276347 C6.79322724,4.27276347 3.27276347,7.79365149 3.27276347,12.1214715 C3.27276347,16.4497159 6.79322724,19.9701796 11.1214715,19.9701796 C11.47233,19.9701796 11.7578533,20.2557029 11.7578533,20.6065614 C11.7578533,20.9578441 11.47233,21.2429431 11.1214715,21.2429431 C6.09151031,21.2429431 2,17.1510085 2,12.1214715 C2,7.09193456 6.09151031,3 11.1214715,3 Z M11.5555556,8.02675585 C11.8855739,7.99108138 12.1144261,7.99108138 12.4444444,8.02675585 L12.4444444,8.02675585 L14.2222222,11.2160535 L13.3333333,11.2160535 L15.1111111,13.6080268 L14.2222222,13.6080268 L16,16 L8,16 L9.77777778,13.6080268 L8.88888889,13.6080268 L10.6666667,11.2160535 L9.77777778,11.2160535 Z" id="Fill-4" fill="#1F2F3C"></path>
    </g>
</svg>