<?xml version="1.0" encoding="UTF-8"?>
<svg width="24px" height="24px" viewBox="0 0 24 24" version="1.1" xmlns="http://www.w3.org/2000/svg" xmlns:xlink="http://www.w3.org/1999/xlink">
    <!-- Generator: Sketch 62 (91390) - https://sketch.com -->
    <title>Roofing</title>
    <desc>Created with Sketch.</desc>
    <g id="Roofing" stroke="none" stroke-width="1" fill="none" fill-rule="evenodd">
        <path d="M15.3653846,13.7258028 C15.6309061,13.7258028 15.8461538,13.9503375 15.8461538,14.2273151 L15.8461538,21.2484877 C15.8461538,21.5254653 15.6309061,21.75 15.3653846,21.75 L8.63461538,21.75 C8.36909387,21.75 8.15384615,21.5254653 8.15384615,21.2484877 L8.15384615,14.2273151 C8.15384615,13.9503375 8.36909387,13.7258028 8.63461538,13.7258028 L15.3653846,13.7258028 Z M11.4228462,18.4218028 L9.30684615,18.4218028 L9.30769231,20.5463704 L11.4228462,20.5458028 L11.4228462,18.4218028 Z M14.6918462,18.4218028 L12.6728462,18.4218028 L12.6728462,20.5458028 L14.6923077,20.5463704 L14.6918462,18.4218028 Z M11.4228462,14.9288028 L9.30769231,14.9294324 L9.30684615,17.1358028 L11.4228462,17.1358028 L11.4228462,14.9288028 Z M12.6728462,14.9288028 L12.6728462,17.1358028 L14.6918462,17.1358028 L14.6923077,14.9294324 L12.6728462,14.9288028 Z M11.094427,3.24213285 C11.6657814,2.80211521 12.464269,2.81107252 13.0256087,3.26379654 L13.0256087,3.26379654 L21.8838668,10.4080376 C21.9573065,10.4672672 22,10.556548 22,10.650896 L22,10.650896 L22,14.7042424 C22,14.7720774 21.9778919,14.8380643 21.9370246,14.8922071 C21.8332146,15.0297396 21.6375678,15.0570771 21.5000353,14.9532671 L21.5000353,14.9532671 L12,7.78260574 L2.49996471,14.9532671 C2.44582185,14.9941343 2.37983494,15.0162424 2.312,15.0162424 C2.13968716,15.0162424 2,14.8765553 2,14.7042424 L2,14.7042424 L2,10.5191329 C2,10.4250218 2.0424803,10.335939 2.11560748,10.2766995 L2.11560748,10.2766995 L3.34722828,9.27897774 L3.34722828,3.73130497 C3.34722828,3.55899213 3.48691544,3.41930497 3.65922828,3.41930497 L3.65922828,3.41930497 L6.78262802,3.41930497 C6.95494087,3.41930497 7.09462802,3.55899213 7.09462802,3.73130497 L7.09462802,3.73130497 L7.09462802,6.32250167 Z" id="Combined-Shape" fill="#1F2F3C"></path>
    </g>
</svg>