<?xml version="1.0" encoding="UTF-8"?>
<svg width="24px" height="24px" viewBox="0 0 24 24" version="1.1" xmlns="http://www.w3.org/2000/svg" xmlns:xlink="http://www.w3.org/1999/xlink">
    <!-- Generator: Sketch 62 (91390) - https://sketch.com -->
    <title>SmartHomeLock</title>
    <desc>Created with Sketch.</desc>
    <g id="SmartHomeLock" stroke="none" stroke-width="1" fill="none" fill-rule="evenodd">
        <path d="M12.0131579,2.00051265 C15.3634132,2.04456912 18.1232463,4.95735648 18.2416558,8.51307298 L18.245614,8.75104881 L18.245,9.641 L18.601544,9.70106828 C18.6889218,9.71965289 18.7764182,9.73559479 18.8639118,9.75205827 L19.1262625,9.80617779 C19.6141426,9.91689042 19.96644,10.3206629 20.0194053,10.7872708 L20.0263158,10.9050986 L20.0263158,20.7874469 C20.0263158,21.267437 19.7049102,21.7050153 19.2243154,21.8581217 C14.4172612,23.3806261 9.61120095,23.3806261 4.80190998,21.8581217 C4.35950091,21.7178526 4.054348,21.3384043 4.00656147,20.9064224 L4,20.7874469 L4,10.9050986 C4,10.3879606 4.36932503,9.92814933 4.90003065,9.80617779 L5.16022947,9.75279652 L5.16022947,9.75279652 L5.42047913,9.70106828 L5.78,9.641 L5.78070175,8.66579897 C5.78070175,5.038707 8.42822121,2.08581274 11.7881298,2.00183672 L12.0131579,2.00051265 Z M12.0295985,18.2459843 C11.3430113,18.2459843 10.7864224,18.7998299 10.7864224,19.4830331 C10.7864224,20.1662363 11.3430113,20.7200819 12.0295985,20.7200819 C12.7161857,20.7200819 13.2727746,20.1662363 13.2727746,19.4830331 C13.2727746,18.7998299 12.7161857,18.2459843 12.0295985,18.2459843 Z M12.0136759,15.092622 C11.0603933,15.092622 10.1514563,15.3730071 9.41405912,15.883145 L9.41405912,15.883145 L8.78120711,16.3209576 L9.66116953,17.5804233 L10.2940215,17.1426107 C10.7717097,16.8121417 11.3733104,16.6265624 12.0136759,16.6265624 C12.6653755,16.6265624 13.2767799,16.8188043 13.7579838,17.1598744 L13.7579838,17.1598744 L14.3857748,17.6048433 L15.2801206,16.3554499 L14.6523296,15.9104809 C13.9084867,15.3832562 12.984156,15.092622 12.0136759,15.092622 Z M11.9837872,12 C10.3690671,12 8.83660024,12.5480328 7.60504821,13.5357512 L7.60504821,13.5357512 L7.00493421,14.0170493 L7.97229832,15.2113616 L8.57241231,14.7300635 C9.53235348,13.96018 10.7242494,13.5339405 11.9837872,13.5339405 C13.2658569,13.5339405 14.4776537,13.9756568 15.4455058,14.7709327 L15.4455058,14.7709327 L16.0398343,15.2592875 L17.0213816,14.0764891 L16.4270531,13.5881343 C15.1854458,12.5679161 13.6274347,12 11.9837872,12 Z M12.0131579,4.62544857 C10.1161591,4.65440119 8.54794356,6.50819776 8.45178263,8.52816591 L8.44711049,8.72410977 L8.44726375,9.20402462 C10.6474958,8.95250018 12.8463573,8.93392814 15.0448481,9.14830848 L15.575,9.206 L15.5751673,8.66579897 C15.5751673,6.61304091 14.0998181,4.71722928 12.1984554,4.62835329 L12.0131579,4.62544857 Z" id="Combined-Shape-Copy" fill="#1F2F3C"></path>
    </g>
</svg>