<?xml version="1.0" encoding="UTF-8"?>
<svg width="24px" height="24px" viewBox="0 0 24 24" version="1.1" xmlns="http://www.w3.org/2000/svg" xmlns:xlink="http://www.w3.org/1999/xlink">
    <!-- Generator: Sketch 62 (91390) - https://sketch.com -->
    <title>SmartHomeLights</title>
    <desc>Created with Sketch.</desc>
    <g id="SmartHomeLights" stroke="none" stroke-width="1" fill="none" fill-rule="evenodd">
        <path d="M14.9615385,22 C15.2589226,22 15.5,22.2410774 15.5,22.5384615 C15.5,22.8358456 15.2589226,23.0769231 14.9615385,23.0769231 L10.0384615,23.0769231 C9.74107744,23.0769231 9.5,22.8358456 9.5,22.5384615 C9.5,22.2410774 9.74107744,22 10.0384615,22 L14.9615385,22 Z M14.9615385,20 C15.2589226,20 15.5,20.2410774 15.5,20.5384615 C15.5,20.8358456 15.2589226,21.0769231 14.9615385,21.0769231 L10.0384615,21.0769231 C9.74107744,21.0769231 9.5,20.8358456 9.5,20.5384615 C9.5,20.2410774 9.74107744,20 10.0384615,20 L14.9615385,20 Z M12.5,1 C16.3330987,1 20,3.86530646 20,8 C20,10.7718835 19.1064036,12.412946 18.0078112,13.9463034 C17.0214133,15.3231297 15.9076165,17.0712474 15.6895874,19 L15.6895874,19 L9.4217972,19 C9.2037681,17.0712474 8.08997128,15.3231297 7.10357343,13.9463034 C6.00498101,12.412946 5,10.8325412 5,8.06065769 C5,3.92596415 8.66690126,1 12.5,1 Z" id="Stroke-2" fill="#1F2F3C"></path>
    </g>
</svg>