<?xml version="1.0" encoding="UTF-8"?>
<svg width="24px" height="24px" viewBox="0 0 24 24" version="1.1" xmlns="http://www.w3.org/2000/svg" xmlns:xlink="http://www.w3.org/1999/xlink">
    <!-- Generator: Sketch 62 (91390) - https://sketch.com -->
    <title>SmartHomeSensor</title>
    <desc>Created with Sketch.</desc>
    <g id="SmartHomeSensor" stroke="none" stroke-width="1" fill="none" fill-rule="evenodd">
        <path d="M19.1096389,6 L19.7425092,6.74177825 C21.0412835,8.26405321 21.7619048,10.1582776 21.7619048,12.1541722 C21.7619048,14.1858228 21.0151385,16.1116215 19.6736293,17.6463254 L19.0314801,18.3809524 L17.4761905,17.1676988 L18.1183397,16.4330718 C19.1640669,15.2367463 19.7448901,13.7388901 19.7448901,12.1541722 C19.7448901,10.597305 19.1844176,9.12404752 18.1720796,7.9375005 L17.5392093,7.19572224 L19.1096389,6 Z M4.65226584,6 L6.22269544,7.19572224 L5.58982518,7.9375005 C4.57748715,9.12404752 4.01701468,10.597305 4.01701468,12.1541722 C4.01701468,13.7388901 4.59783788,15.2367463 5.64356508,16.4330718 L5.64356508,16.4330718 L6.28571429,17.1676988 L4.73042467,18.3809524 L4.08827546,17.6463254 C2.74676628,16.1116215 2,14.1858228 2,12.1541722 C2,10.1582776 2.72062124,8.26405321 4.01939558,6.74177825 L4.01939558,6.74177825 L4.65226584,6 Z M16.0844723,8.14285714 L16.6653826,8.93115626 C17.3422576,9.84967989 17.7142857,10.9818786 17.7142857,12.1693154 C17.7142857,13.3781741 17.3286586,14.5295477 16.629112,15.4561003 L16.0387064,16.2380952 L14.3809524,15.1240717 L14.971358,14.3420768 C15.423906,13.742675 15.6789814,12.9810918 15.6789814,12.1693154 C15.6789814,11.3716574 15.4327461,10.6222858 14.9942644,10.0272634 L14.413354,9.23896425 L16.0844723,8.14285714 Z M7.67743251,8.14285714 L9.34855071,9.23896425 L8.76764033,10.0272634 C8.32915866,10.6222858 8.08292333,11.3716574 8.08292333,12.1693154 C8.08292333,12.9810918 8.33799879,13.742675 8.79054674,14.3420768 L8.79054674,14.3420768 L9.38095238,15.1240717 L7.72319841,16.2380952 L7.13279277,15.4561003 C6.43324619,14.5295477 6.04761905,13.3781741 6.04761905,12.1693154 C6.04761905,10.9818786 6.41964719,9.84967989 7.09652213,8.93115626 L7.09652213,8.93115626 L7.67743251,8.14285714 Z M12,10.5238095 C12.7889782,10.5238095 13.4285714,11.1634027 13.4285714,11.952381 C13.4285714,12.7413592 12.7889782,13.3809524 12,13.3809524 C11.2110218,13.3809524 10.5714286,12.7413592 10.5714286,11.952381 C10.5714286,11.1634027 11.2110218,10.5238095 12,10.5238095 Z" id="Combined-Shape" fill="#1F2F3C"></path>
    </g>
</svg>