<?xml version="1.0" encoding="UTF-8"?>
<svg width="24px" height="24px" viewBox="0 0 24 24" version="1.1" xmlns="http://www.w3.org/2000/svg" xmlns:xlink="http://www.w3.org/1999/xlink">
    <!-- Generator: Sketch 62 (91390) - https://sketch.com -->
    <title>SmartHomePlugs</title>
    <desc>Created with Sketch.</desc>
    <g id="SmartHomePlugs" stroke="none" stroke-width="1" fill="none" fill-rule="evenodd">
        <path d="M17.175,2 C18.2795695,2 19.175,2.8954305 19.175,4 L19.175,21 C19.175,22.1045695 18.2795695,23 17.175,23 L7,23 C5.8954305,23 5,22.1045695 5,21 L5,4 C5,2.8954305 5.8954305,2 7,2 L17.175,2 Z M12.105,13.55 C10.2106633,13.55 8.675,15.0856633 8.675,16.98 C8.675,18.8743367 10.2106633,20.41 12.105,20.41 C13.9993367,20.41 15.535,18.8743367 15.535,16.98 C15.535,15.0856633 13.9993367,13.55 12.105,13.55 Z M11.6487931,18.2097753 C11.6487931,17.506266 12.7061698,17.4622967 12.7061698,18.2097753 L12.7061698,18.2097753 L12.7061698,18.9132846 L11.6487931,18.9132846 Z M11.1371592,14.9262407 L11.1371592,16.3332593 L10.4322414,16.3332593 L10.4322414,14.9262407 L11.1371592,14.9262407 Z M13.7223316,14.9262407 L13.7223316,16.3332593 L13.0174138,16.3332593 L13.0174138,14.9262407 L13.7223316,14.9262407 Z M12.105,4.625 C10.2106633,4.625 8.675,6.16066331 8.675,8.055 C8.675,9.94933669 10.2106633,11.485 12.105,11.485 C13.9993367,11.485 15.535,9.94933669 15.535,8.055 C15.535,6.16066331 13.9993367,4.625 12.105,4.625 Z M11.6487931,9.28477529 C11.6487931,8.58126601 12.7061698,8.53729668 12.7061698,9.28477529 L12.7061698,9.28477529 L12.7061698,9.98828457 L11.6487931,9.98828457 Z M11.1371592,6.00124073 L11.1371592,7.40825928 L10.4322414,7.40825928 L10.4322414,6.00124073 L11.1371592,6.00124073 Z M13.7223316,6.00124073 L13.7223316,7.40825928 L13.0174138,7.40825928 L13.0174138,6.00124073 L13.7223316,6.00124073 Z" id="Combined-Shape" fill="#1F2F3C"></path>
    </g>
</svg>