<?xml version="1.0" encoding="UTF-8"?>
<svg width="24px" height="24px" viewBox="0 0 24 24" version="1.1" xmlns="http://www.w3.org/2000/svg" xmlns:xlink="http://www.w3.org/1999/xlink">
    <!-- Generator: Sketch 62 (91390) - https://sketch.com -->
    <title>SmartHomeSecurity</title>
    <desc>Created with Sketch.</desc>
    <g id="SmartHomeSecurity" stroke="none" stroke-width="1" fill="none" fill-rule="evenodd">
        <path d="M14.4900407,2.95232399 L20.1496622,6.64548188 C21.3040237,7.39875478 22,8.68395855 22,10.0623528 L22,17.8993605 C22,20.1526823 20.1733218,21.9793605 17.92,21.9793605 L11.7079198,21.9793605 L6.09138059,21.9950272 C3.83806758,22.0013125 2.0063012,20.1797366 2.00001587,17.9264236 L2,9.91457167 C2,8.45287604 2.78193638,7.10285859 4.04982831,6.37553185 L10.2302069,2.83015505 C11.5602904,2.06715211 13.2058722,2.1143462 14.4900407,2.95232399 Z M12.0735294,7.2941264 L11.8935064,7.29706165 C10.1658464,7.3768266 8.81372549,8.93397122 8.81372549,10.8414777 L8.81372549,10.8414777 L8.81335294,11.3598536 L8.6253158,11.3924613 L8.35310209,11.448402 L8.26385132,11.4764948 C8.03498155,11.5680751 7.88235294,11.7886151 7.88235294,12.0332618 L7.88235294,12.0332618 L7.88235294,17.2927749 L7.89002159,17.3872634 C7.92543693,17.6040974 8.08090316,17.7913421 8.30178137,17.8626018 C10.8172175,18.6728983 13.3309639,18.6728983 15.8452302,17.8626018 C16.0965989,17.7811166 16.2647059,17.5482318 16.2647059,17.2927749 L16.2647059,17.2927749 L16.2647059,12.0332618 L16.2573734,11.9431034 C16.2196421,11.7065135 16.039673,11.5051423 15.7939449,11.448402 L15.7939449,11.448402 L15.6567258,11.4195989 C15.6109634,11.4108368 15.5651996,11.4023523 15.5194978,11.3924613 L15.5194978,11.3924613 L15.3323529,11.3598536 L15.3333333,10.8868487 L15.3284806,10.6930558 C15.235071,8.83126522 13.8050681,7.31729592 12.0735294,7.2941264 L12.0735294,7.2941264 Z M12.0743566,13.2868468 C12.5301574,13.2868468 12.9021056,13.6420789 12.9021056,14.082452 C12.9021056,14.3356882 12.7760549,14.5606921 12.5852831,14.7060329 L12.795021,16.3982827 L11.3514706,16.3982827 L11.5633946,14.7060329 C11.3715002,14.5606921 11.2465958,14.3367701 11.2465958,14.082452 C11.2465958,13.676963 11.5625555,13.3421569 11.9705566,13.2930477 L12.0743566,13.2868468 Z M12.0735294,8.69115112 L12.214047,8.69539524 C13.187393,8.76960468 13.9365914,9.7649925 13.9365914,10.8414777 L13.9365914,10.8414777 L13.9363529,11.1288536 L14.0425057,11.1408993 C12.765106,10.9835403 11.4875387,10.9791914 10.2090868,11.1278525 L10.2090868,11.1278525 L10.2083554,10.8725114 L10.2135062,10.7209977 C10.2851856,9.66445033 11.0958776,8.70633414 12.0735294,8.69115112 L12.0735294,8.69115112 Z" id="Combined-Shape" fill="#1F2F3C"></path>
    </g>
</svg>