<?xml version="1.0" encoding="UTF-8"?>
<svg width="24px" height="24px" viewBox="0 0 24 24" version="1.1" xmlns="http://www.w3.org/2000/svg" xmlns:xlink="http://www.w3.org/1999/xlink">
    <!-- Generator: Sketch 62 (91390) - https://sketch.com -->
    <title>SmartHomeThermostat</title>
    <desc>Created with Sketch.</desc>
    <g id="SmartHomeThermostat" stroke="none" stroke-width="1" fill="none" fill-rule="evenodd">
        <path d="M10.0761593,11.5582741 C10.3892084,11.5582741 10.674219,11.622204 10.9311996,11.7500658 C11.1881802,11.8779275 11.3914255,12.0590622 11.5409415,12.2934754 C11.6904575,12.5278886 11.7652143,12.7989987 11.7652143,13.106814 C11.7652143,13.4383074 11.683449,13.7295436 11.5199159,13.9805314 C11.3563828,14.2315193 11.1332802,14.4244929 10.8506016,14.559458 C10.5679229,14.6944232 10.2537104,14.7619048 9.90795468,14.7619048 C9.22111559,14.7619048 8.68380056,14.5488051 8.29599346,14.1225993 C7.90818636,13.6963936 7.71428571,13.0878756 7.71428571,12.2970271 C7.71428571,11.7334884 7.81941257,11.2504624 8.02966943,10.8479348 C8.23992629,10.4454071 8.53311341,10.1399642 8.90923957,9.93159695 C9.28536574,9.72322969 9.72105815,9.61904762 10.2163299,9.61904762 C10.4779829,9.61904762 10.7291192,9.6486448 10.9697465,9.70784004 C11.2103738,9.76703529 11.4147872,9.85109127 11.5829926,9.96001052 L11.162481,10.8053144 C10.9195175,10.6395677 10.6134816,10.5566956 10.244364,10.5566956 C9.82852263,10.5566956 9.49912515,10.6798199 9.25616166,10.9260721 C9.01319818,11.1723243 8.88237365,11.5298582 8.86368415,11.9986846 C9.15337138,11.7050761 9.55752573,11.5582741 10.0761593,11.5582741 Z M9.84487793,13.9023941 C10.0878414,13.9023941 10.2852463,13.8360964 10.4370985,13.7034991 C10.5889506,13.5709017 10.6648756,13.3909509 10.6648756,13.1636411 C10.6648756,12.9363314 10.5889506,12.7551967 10.4370985,12.6202315 C10.2852463,12.4852664 10.0831691,12.4177848 9.83086088,12.4177848 C9.58322502,12.4177848 9.37997977,12.4876341 9.22111903,12.6273349 C9.06225829,12.7670357 8.98282911,12.9458026 8.98282911,13.1636411 C8.98282911,13.3814796 9.05992214,13.5590627 9.2141105,13.6963957 C9.36829887,13.8337287 9.57855258,13.9023941 9.84487793,13.9023941 Z M15.5358019,12.0626151 C15.7787654,12.1857412 15.9644895,12.3467499 16.0929798,12.5456459 C16.2214701,12.7445419 16.2857143,12.974216 16.2857143,13.2346751 C16.2857143,13.5424904 16.1992766,13.8112327 16.0263988,14.0409103 C15.8535209,14.2705878 15.6105611,14.4481709 15.297512,14.5736648 C14.9844629,14.6991587 14.6223593,14.7619048 14.2111903,14.7619048 C13.8000213,14.7619048 13.4390858,14.6991587 13.1283729,14.5736648 C12.8176599,14.4481709 12.5770362,14.2705878 12.4064946,14.0409103 C12.2359529,13.8112327 12.1506833,13.5424904 12.1506833,13.2346751 C12.1506833,12.974216 12.2149275,12.7445419 12.3434178,12.5456459 C12.4719081,12.3467499 12.6552961,12.1857412 12.8935872,12.0626151 C12.7113646,11.9489602 12.5711954,11.8057099 12.4730756,11.6328598 C12.3749557,11.4600097 12.3258965,11.2623005 12.3258965,11.0397264 C12.3258965,10.7508536 12.4053257,10.4998695 12.5641864,10.2867666 C12.7230472,10.0736638 12.9449816,9.90910345 13.2299965,9.79308077 C13.5150114,9.67705809 13.8420727,9.61904762 14.2111903,9.61904762 C14.5849803,9.61904762 14.9155458,9.67705809 15.2028969,9.79308077 C15.4902479,9.90910345 15.7133504,10.0736638 15.8722112,10.2867666 C16.0310719,10.4998695 16.1105011,10.7508536 16.1105011,11.0397264 C16.1105011,11.2623005 16.0614419,11.4600097 15.963322,11.6328598 C15.8652022,11.8057099 15.7226969,11.9489602 15.5358019,12.0626151 Z M14.2111903,10.4643515 C13.9822439,10.4643515 13.798856,10.5199942 13.6610209,10.6312812 C13.5231859,10.7425683 13.4542694,10.8952897 13.4542694,11.0894501 C13.4542694,11.2788749 13.5220178,11.4280447 13.6575166,11.536964 C13.7930155,11.6458832 13.9775715,11.700342 14.2111903,11.700342 C14.444809,11.700342 14.6317012,11.6458832 14.7718724,11.536964 C14.9120437,11.4280447 14.9821283,11.2788749 14.9821283,11.0894501 C14.9821283,10.8952897 14.9120437,10.7425683 14.7718724,10.6312812 C14.6317012,10.5199942 14.444809,10.4643515 14.2111903,10.4643515 Z M11.9937804,2 C17.5131913,2 21.9875592,6.47440097 21.9875592,11.9964672 C21.9813352,17.5118661 17.5118514,21.981413 11.9964672,21.987637 C6.47435363,21.987637 2,17.5132217 2,11.9937804 C2,6.47440097 6.47436941,2 11.9937804,2 Z M11.9937804,4.38095238 C7.78931001,4.38095238 4.38095238,7.78938776 4.38095238,11.9937804 C4.38095238,16.1982507 7.78931001,19.6066861 11.9937804,19.6066861 C16.1963071,19.6019436 19.6018659,16.1963071 19.6066084,11.9937804 C19.6066084,7.78938776 16.1982507,4.38095238 11.9937804,4.38095238 Z M14.2111903,12.4888187 C14.4962051,12.4888187 14.7216438,12.5527486 14.8875131,12.6806104 C15.0533824,12.8084721 15.1363159,12.9813196 15.1363159,13.1991581 C15.1363159,13.4169966 15.0533824,13.591028 14.8875131,13.7212576 C14.7216438,13.8514871 14.4962051,13.9166009 14.2111903,13.9166009 C13.9308478,13.9166009 13.7089133,13.852671 13.5453802,13.7248093 C13.3818471,13.5969475 13.3000818,13.4217322 13.3000818,13.1991581 C13.3000818,12.9813196 13.3818471,12.8084721 13.5453802,12.6806104 C13.7089133,12.5527486 13.9308478,12.4888187 14.2111903,12.4888187 Z M12,5.80952381 C13.5768694,5.80952381 15.0704393,6.35937822 16.2584312,7.34663401 C16.4606969,7.51472264 16.4884028,7.8149541 16.3203142,8.01721975 C16.1522256,8.2194854 15.8519941,8.24719136 15.6497285,8.07910273 C14.6312013,7.23267708 13.3524422,6.76190476 12,6.76190476 C10.6578177,6.76190476 9.38810506,7.22552352 8.37305783,8.06026553 C8.16993003,8.22731127 7.86984509,8.19806097 7.70279936,7.99493317 C7.53575362,7.79180537 7.56500392,7.49172043 7.76813172,7.3246747 C8.95208818,6.35102719 10.4351035,5.80952381 12,5.80952381 Z" id="68" fill="#1F2F3C"></path>
    </g>
</svg>