<?xml version="1.0" encoding="UTF-8"?>
<svg width="24px" height="24px" viewBox="0 0 24 24" version="1.1" xmlns="http://www.w3.org/2000/svg" xmlns:xlink="http://www.w3.org/1999/xlink">
    <!-- Generator: Sketch 62 (91390) - https://sketch.com -->
    <title>SmartHome</title>
    <desc>Created with Sketch.</desc>
    <g id="SmartHome" stroke="none" stroke-width="1" fill="none" fill-rule="evenodd">
        <path d="M13.3817249,2.24394223 L21.1287003,7.2953987 C21.672247,7.64982122 22,8.25480822 22,8.90369832 L22,20.0593823 C22,21.119769 21.1403867,21.9793823 20.08,21.9793823 L11.7079198,21.9793823 L3.92535155,22.0010745 C2.86496895,22.0040301 2.00296304,21.1468161 2.00000746,20.0864335 L2,8.67475494 C2,7.98667585 2.36820594,7.35120364 2.96516471,7.00901499 L11.3781893,2.1865019 C12.0038271,1.82787383 12.7776611,1.85005925 13.3817249,2.24394223 Z M12,16.1402057 C11.1503312,16.1402057 10.4615385,16.8267308 10.4615385,17.6736024 C10.4615385,18.520474 11.1503312,19.2069991 12,19.2069991 C12.8496688,19.2069991 13.5384615,18.520474 13.5384615,17.6736024 C13.5384615,16.8267308 12.8496688,16.1402057 12,16.1402057 Z M11.9802953,12.2314225 C10.8005843,12.2314225 9.675752,12.5789768 8.76320455,13.2113235 L8.76320455,13.2113235 L7.98003435,13.7540188 L9.06900986,15.3152026 L9.85218006,14.7725073 C10.4433311,14.3628711 11.1878271,14.1328344 11.9802953,14.1328344 C12.78679,14.1328344 13.5434181,14.3711297 14.13892,14.7939068 L14.13892,14.7939068 L14.9158271,15.3454727 L16.0226024,13.796774 L15.2456954,13.2452081 C14.3251712,12.5916812 13.1812887,12.2314225 11.9802953,12.2314225 Z M11.9433074,8.39793069 C9.94505081,8.39793069 8.04858473,9.0772504 6.52450828,10.3015871 L6.52450828,10.3015871 L5.78185219,10.8981851 L6.97898948,12.3786075 L7.72164557,11.7820094 C8.90959678,10.8276923 10.3845977,10.2993426 11.9433074,10.2993426 C13.5299006,10.2993426 15.0295295,10.8468766 16.2272707,11.8326692 L16.2272707,11.8326692 L16.9627671,12.4380144 L18.1774564,10.9718644 L17.44196,10.3665192 C15.90544,9.10189696 13.9773622,8.39793069 11.9433074,8.39793069 Z" id="Combined-Shape" fill="#1F2F3C"></path>
    </g>
</svg>