<?xml version="1.0" encoding="UTF-8"?>
<svg width="24px" height="24px" viewBox="0 0 24 24" version="1.1" xmlns="http://www.w3.org/2000/svg" xmlns:xlink="http://www.w3.org/1999/xlink">
    <!-- Generator: Sketch 62 (91390) - https://sketch.com -->
    <title>SnowRemoval</title>
    <desc>Created with Sketch.</desc>
    <g id="SnowRemoval" stroke="none" stroke-width="1" fill="none" fill-rule="evenodd">
        <path d="M12.2790698,2 C12.6908622,2 13.024686,2.33069996 13.024686,2.73863903 L13.024,4.391 L13.8501029,3.57317301 C14.1412842,3.28471653 14.6133823,3.28471653 14.9045635,3.57317301 C15.1957447,3.8616295 15.1957447,4.32930986 14.9045635,4.61776635 L13.024,6.48 L13.024,11.22 L17.169,8.849 L17.8570304,6.30654635 C17.9636105,5.91250755 18.3724596,5.67866769 18.7702205,5.78425041 C19.1679814,5.88983313 19.4040301,6.29485639 19.29745,6.68889519 L18.995,7.805 L20.4395871,6.97969066 C20.7962087,6.77571915 21.2522211,6.89676121 21.4581193,7.25004567 C21.6640176,7.60333013 21.5418321,8.05507535 21.1852105,8.25904686 L19.741,9.085 L20.8683845,9.38437703 C21.2661454,9.48995975 21.5021941,9.89498302 21.3956141,10.2890218 C21.289034,10.6830606 20.8801849,10.9169005 20.482424,10.8113178 L17.914,10.129 L13.77,12.5 L17.914,14.87 L20.4825234,14.1886822 C20.8802843,14.0830995 21.2891334,14.3169394 21.3957135,14.7109782 C21.5022935,15.105017 21.2662448,15.5100402 20.8684839,15.615623 L19.74,15.915 L21.1852105,16.7410516 C21.5418321,16.9450231 21.6640176,17.3967684 21.4581193,17.7500528 C21.2522211,18.1033373 20.7962087,18.2243793 20.4395871,18.0204078 L18.995,17.194 L19.2975578,18.3116282 C19.4041206,18.7056715 19.1680542,19.1106847 18.7702887,19.2162503 C18.3725232,19.3218159 17.9636843,19.0879585 17.8571215,18.6939151 L17.169,16.15 L13.024,13.779 L13.024,18.519 L14.9045635,20.3822337 C15.1957447,20.6706901 15.1957447,21.1383705 14.9045635,21.426827 C14.6133823,21.7152835 14.1412842,21.7152835 13.8501029,21.426827 L13.024,20.608 L13.024686,22.261361 C13.024686,22.6693 12.6908622,23 12.2790698,23 C11.8672773,23 11.5334536,22.6693 11.5334536,22.261361 L11.533,20.609 L10.7082354,21.426827 C10.4170542,21.7152835 9.94495611,21.7152835 9.65377487,21.426827 C9.36259362,21.1383705 9.36259362,20.6706901 9.65377487,20.3822337 L11.533,18.52 L11.533,13.779 L7.388,16.15 L6.70101805,18.6939151 C6.59445524,19.0879585 6.18561636,19.3218159 5.78785085,19.2162503 C5.39008534,19.1106847 5.1540189,18.7056715 5.26058171,18.3116282 L5.562,17.194 L4.11855243,18.0204078 C3.76193084,18.2243793 3.30591844,18.1033373 3.10002021,17.7500528 C2.89412198,17.3967684 3.01630741,16.9450231 3.37292899,16.7410516 L4.817,15.915 L3.68965559,15.615623 C3.2918947,15.5100402 3.05584599,15.105017 3.16242604,14.7109782 C3.2690061,14.3169394 3.67785521,14.0830995 4.0756161,14.1886822 L6.643,14.87 L10.787,12.5 L6.643,10.13 L4.07571552,10.8113178 C3.67795463,10.9169005 3.26910551,10.6830606 3.16252546,10.2890218 C3.05594541,9.89498302 3.29199412,9.48995975 3.68975501,9.38437703 L4.816,9.085 L3.37292899,8.25904686 C3.01630741,8.05507535 2.89412198,7.60333013 3.10002021,7.25004567 C3.30591844,6.89676121 3.76193084,6.77571915 4.11855243,6.97969066 L5.562,7.805 L5.26068949,6.68889519 C5.15410944,6.29485639 5.39015815,5.88983313 5.78791904,5.78425041 C6.18567993,5.67866769 6.59452905,5.91250755 6.7011091,6.30654635 L7.389,8.85 L11.533,11.22 L11.533,6.479 L9.65377487,4.61776635 C9.36259362,4.32930986 9.36259362,3.8616295 9.65377487,3.57317301 C9.94495611,3.28471653 10.4170542,3.28471653 10.7082354,3.57317301 L11.533,4.39 L11.5334536,2.73863903 C11.5334536,2.33069996 11.8672773,2 12.2790698,2 Z" id="Stroke-14" fill="#1F2F3C"></path>
    </g>
</svg>